# Blender v2.90.1 OBJ File: 'Pick.blend'
# www.blender.org
mtllib Pick.mtl
o Pick_Plane.002
v -0.058666 1.350715 0.029569
v -0.065314 1.306862 0.029569
v 0.047461 1.349299 0.029569
v 0.053480 1.312861 0.029569
v 0.089945 1.349299 0.029569
v 0.087821 1.318407 0.029569
v 0.136677 1.343229 0.029569
v 0.132429 1.318105 0.029569
v 0.180577 1.336545 0.029569
v 0.179869 1.314876 0.029569
v 0.223061 1.328757 0.029569
v 0.220937 1.312043 0.029569
v 0.264128 1.321676 0.029569
v 0.263420 1.307795 0.029569
v 0.305196 1.312471 0.029569
v 0.300240 1.300714 0.029569
v 0.328562 1.306099 0.029569
v 0.326438 1.297174 0.029569
v 0.359009 1.295478 0.029569
v 0.344139 1.292218 0.029569
v -0.095486 1.348614 0.029569
v -0.095486 1.311795 0.029569
v -0.129905 1.345162 0.029569
v -0.130889 1.310939 0.029569
v -0.180178 1.338239 0.029569
v -0.180669 1.306475 0.029569
v -0.227401 1.330451 0.029569
v -0.226418 1.302128 0.029569
v -0.289160 1.315955 0.029569
v -0.289160 1.293041 0.029569
v -0.340023 1.302443 0.029569
v -0.342481 1.282479 0.029569
v -0.389272 1.281073 0.000284
v -0.047982 1.354113 0.018881
v 0.036777 1.352982 0.018881
v -0.058666 1.350715 -0.029001
v -0.065314 1.306862 -0.029001
v 0.047461 1.349299 -0.029001
v 0.053480 1.312861 -0.029001
v 0.089945 1.349299 -0.029001
v 0.087821 1.318407 -0.029001
v 0.136677 1.343229 -0.029001
v 0.132429 1.318105 -0.029001
v 0.180577 1.336545 -0.029001
v 0.179869 1.314876 -0.029001
v 0.223061 1.328757 -0.029001
v 0.220937 1.312043 -0.029001
v 0.264128 1.321676 -0.029001
v 0.263420 1.307795 -0.029001
v 0.305196 1.312471 -0.029001
v 0.300240 1.300714 -0.029001
v 0.328562 1.306099 -0.029001
v 0.326438 1.297174 -0.029001
v 0.359009 1.295478 -0.029001
v 0.344139 1.292218 -0.029001
v -0.095486 1.348614 -0.029001
v -0.095486 1.311795 -0.029001
v -0.129905 1.345162 -0.029001
v -0.130889 1.310939 -0.029001
v -0.180178 1.338239 -0.029001
v -0.180669 1.306475 -0.029001
v -0.227401 1.330451 -0.029001
v -0.226418 1.302128 -0.029001
v -0.289160 1.315955 -0.029001
v -0.289160 1.293041 -0.029001
v -0.340023 1.302443 -0.029001
v -0.342481 1.282479 -0.029001
v -0.047982 1.354113 -0.018313
v 0.036777 1.352982 -0.018313
v -0.062777 1.254347 0.029569
v 0.047461 1.256806 0.029569
v 0.047461 1.352839 0.029569
v -0.058666 1.354255 0.029569
v -0.062777 1.254347 -0.029001
v 0.047461 1.256806 -0.029001
v 0.047461 1.352839 -0.029001
v -0.058666 1.354255 -0.029001
v -0.006461 0.054350 -0.018777
v 0.011969 0.054350 -0.016261
v 0.025461 0.054350 -0.009388
v 0.030400 0.054350 0.000000
v 0.025461 0.054350 0.009389
v 0.011969 0.054350 0.016261
v -0.006461 0.054350 0.018777
v -0.024891 0.054350 0.016261
v -0.038382 0.054350 0.009389
v -0.043321 0.054350 0.000000
v -0.038382 0.054350 -0.009388
v -0.024891 0.054350 -0.016261
v -0.006461 1.388280 -0.027646
v 0.020675 1.388280 -0.023942
v 0.040539 1.388280 -0.013823
v 0.047810 1.388280 0.000000
v 0.040539 1.388280 0.013823
v 0.020675 1.388280 0.023942
v -0.006461 1.388280 0.027646
v -0.033596 1.388280 0.023942
v -0.053460 1.388280 0.013823
v -0.060731 1.388280 0.000000
v -0.053460 1.388280 -0.013823
v -0.033596 1.388280 -0.023942
v -0.006461 0.022721 -0.010209
v 0.003560 0.022721 -0.008841
v 0.010896 0.022721 -0.005105
v 0.013581 0.022721 0.000000
v 0.010896 0.022721 0.005105
v 0.003560 0.022721 0.008842
v -0.006461 0.022721 0.010209
v -0.016481 0.022721 0.008842
v -0.023817 0.022721 0.005105
v -0.026502 0.022721 0.000000
v -0.023817 0.022721 -0.005105
v -0.016481 0.022721 -0.008841
v 0.032026 1.358233 0.011319
v 0.025461 1.267789 0.009389
v 0.011969 1.267789 0.016261
v 0.015760 1.358233 0.019605
v -0.028681 1.358233 -0.019605
v -0.024891 1.267789 -0.016261
v -0.006461 1.267789 -0.018777
v -0.006461 1.358233 -0.022638
v 0.015760 1.358233 -0.019605
v 0.011969 1.267789 -0.016261
v 0.025461 1.267789 -0.009388
v 0.032026 1.358233 -0.011319
v -0.044947 1.358233 0.011319
v -0.038383 1.267789 0.009389
v -0.043321 1.267789 0.000000
v -0.050901 1.358233 0.000000
v -0.006461 1.267789 0.018777
v -0.006461 1.358233 0.022638
v 0.030399 1.267789 0.000000
v 0.037980 1.358233 0.000000
v -0.038383 1.267789 -0.009388
v -0.044947 1.358233 -0.011319
v -0.024891 1.267789 0.016261
v -0.028681 1.358233 0.019605
vt 0.129731 0.541856
vt 0.073088 0.551329
vt 0.090582 0.397127
vt 0.132752 0.410663
vt 0.100928 0.357506
vt 0.136110 0.358583
vt 0.106638 0.305530
vt 0.136480 0.304747
vt 0.111673 0.249842
vt 0.136737 0.253319
vt 0.117164 0.201839
vt 0.136894 0.203047
vt 0.121865 0.152072
vt 0.137778 0.154646
vt 0.123540 0.108250
vt 0.138246 0.106077
vt 0.127799 0.077496
vt 0.138472 0.078133
vt 0.128712 0.055887
vt 0.137898 0.040474
vt 0.004911 0.543745
vt 0.017097 0.400395
vt 0.130000 0.587882
vt 0.081502 0.591419
vt 0.130226 0.633732
vt 0.084435 0.640006
vt 0.130086 0.701710
vt 0.087412 0.708982
vt 0.130360 0.765444
vt 0.092775 0.771971
vt 0.130742 0.848465
vt 0.101648 0.857550
vt 0.135249 0.909718
vt 0.115776 0.925462
vt 0.165045 0.982520
vt 0.136057 0.413926
vt 0.135510 0.535682
vt 0.210265 0.538323
vt 0.206949 0.406893
vt 0.247789 0.394711
vt 0.267894 0.548883
vt 0.204895 0.358647
vt 0.238743 0.357695
vt 0.204356 0.305293
vt 0.233888 0.306372
vt 0.204697 0.253969
vt 0.229755 0.250878
vt 0.205369 0.203625
vt 0.225081 0.202768
vt 0.205307 0.155446
vt 0.221225 0.153142
vt 0.205635 0.106898
vt 0.220306 0.109327
vt 0.205865 0.078943
vt 0.216603 0.078471
vt 0.206993 0.040907
vt 0.216046 0.056650
vt 0.321453 0.396755
vt 0.336060 0.540145
vt 0.259018 0.590893
vt 0.208870 0.587579
vt 0.255601 0.640462
vt 0.209129 0.633903
vt 0.251931 0.709971
vt 0.208993 0.702200
vt 0.245800 0.773428
vt 0.207989 0.766297
vt 0.235225 0.859981
vt 0.205677 0.849761
vt 0.218365 0.929445
vt 0.199517 0.912709
vt 0.204953 0.534407
vt 0.203215 0.412345
vt 0.492788 0.843500
vt 0.412739 0.843500
vt 0.412739 0.756853
vt 0.492788 0.756853
vt 0.358233 0.087315
vt 0.425986 0.087315
vt 0.425986 0.127554
vt 0.358233 0.127554
vt 0.492788 0.577335
vt 0.412739 0.577335
vt 0.412739 0.535551
vt 0.492788 0.535551
vt 0.358233 0.331171
vt 0.425986 0.331171
vt 0.425986 0.374543
vt 0.358233 0.374543
vt 0.492788 0.917791
vt 0.412739 0.917791
vt 0.425986 0.179157
vt 0.358233 0.179157
vt 0.492788 0.625736
vt 0.412739 0.625736
vt 0.425986 0.405124
vt 0.358233 0.405124
vt 0.425986 0.234162
vt 0.358233 0.234162
vt 0.358233 0.426389
vt 0.425986 0.426389
vt 0.425986 0.443998
vt 0.358233 0.443998
vt 0.492788 0.694045
vt 0.412739 0.694045
vt 0.452764 0.981771
vt 0.425986 0.281781
vt 0.358233 0.281781
vt 0.412739 0.463694
vt 0.492788 0.463694
vt 0.358233 0.022098
vt 0.425985 0.022098
vt 0.148900 0.521358
vt 0.149794 0.427058
vt 0.190290 0.426387
vt 0.190771 0.520844
vt 0.426334 0.149652
vt 0.426334 0.022098
vt 0.494086 0.022098
vt 0.494086 0.149652
vt 0.864955 0.093640
vt 0.874925 0.094816
vt 0.876792 0.837919
vt 0.865068 0.837896
vt 0.925162 0.085437
vt 0.938993 0.084173
vt 0.945789 0.834414
vt 0.932061 0.835725
vt 0.884875 0.093675
vt 0.897115 0.090583
vt 0.902273 0.837686
vt 0.888329 0.837932
vt 0.810947 0.084190
vt 0.824746 0.085441
vt 0.821201 0.835825
vt 0.807631 0.834513
vt 0.945862 0.917805
vt 0.962116 0.915566
vt 0.970702 0.941747
vt 0.951977 0.943934
vt 0.791251 0.915905
vt 0.807555 0.918084
vt 0.801533 0.944298
vt 0.782744 0.942183
vt 0.839028 0.087296
vt 0.835999 0.836933
vt 0.725482 0.834064
vt 0.732303 0.877575
vt 0.727213 0.921323
vt 0.711576 0.953585
vt 0.689583 0.965716
vt 0.667126 0.954467
vt 0.650222 0.922850
vt 0.643402 0.879339
vt 0.648492 0.835591
vt 0.664128 0.803329
vt 0.686121 0.791198
vt 0.708578 0.802448
vt 0.852725 0.090530
vt 0.850959 0.837668
vt 0.910853 0.087325
vt 0.917214 0.836892
vt 0.888873 0.925185
vt 0.905764 0.922936
vt 0.907323 0.949723
vt 0.889540 0.953144
vt 0.798646 0.082044
vt 0.796723 0.833542
vt 0.858882 0.056001
vt 0.868360 0.058498
vt 0.902720 0.053891
vt 0.913902 0.051443
vt 0.881515 0.058506
vt 0.890995 0.056016
vt 0.820619 0.047456
vt 0.826812 0.049731
vt 0.847163 0.053880
vt 0.874938 0.059563
vt 0.951252 0.082045
vt 0.923088 0.049735
vt 0.929285 0.047456
vt 0.835990 0.051435
vt 0.719952 0.737634
vt 0.708124 0.758703
vt 0.692836 0.765970
vt 0.678185 0.757491
vt 0.668097 0.735536
vt 0.665275 0.705988
vt 0.670475 0.676765
vt 0.682304 0.655696
vt 0.697592 0.648428
vt 0.712242 0.656907
vt 0.722330 0.678863
vt 0.725152 0.708411
vt 0.956506 0.833482
vt 0.925904 0.920365
vt 0.929396 0.946350
vt 0.827562 0.920571
vt 0.824176 0.946613
vt 0.973232 0.913090
vt 0.983822 0.938379
vt 0.876759 0.926000
vt 0.876829 0.954689
vt 0.847732 0.923063
vt 0.846296 0.949880
vt 0.780096 0.913454
vt 0.769574 0.938856
vt 0.864640 0.925241
vt 0.864109 0.953210
vn -0.0000 -0.0000 1.0000
vn -0.5308 0.0654 0.8450
vn 0.0000 -0.0000 -1.0000
vn -0.5308 0.0654 -0.8450
vn 0.1699 0.9855 0.0000
vn 0.1433 -0.9897 0.0000
vn 0.1594 -0.9872 -0.0000
vn -0.0570 0.9984 -0.0000
vn 0.0000 1.0000 0.0000
vn -0.1614 -0.9869 0.0000
vn -0.1888 -0.9820 0.0000
vn -0.2568 0.9665 0.0000
vn 0.2187 0.9758 0.0000
vn 0.1943 -0.9809 0.0000
vn -0.0068 -1.0000 0.0000
vn -0.0998 0.9950 -0.0000
vn -0.3980 0.9174 0.0000
vn 0.1288 0.9917 0.0000
vn 0.0242 -0.9997 -0.0000
vn -0.1339 -0.9910 0.0000
vn 0.2631 0.9648 0.0000
vn 1.0000 0.0000 0.0000
vn -0.0679 -0.9977 0.0000
vn -0.1364 0.9907 0.0000
vn 0.2142 -0.9768 0.0000
vn -1.0000 0.0000 -0.0000
vn 0.1505 0.9886 0.0000
vn 0.0893 -0.9960 0.0000
vn -0.2696 -0.9630 0.0000
vn 0.0300 -0.9995 0.0000
vn 0.3294 0.9442 0.0000
vn -0.0688 -0.9976 0.0000
vn -0.1627 0.9867 0.0000
vn 0.1803 0.9836 0.0000
vn 0.0946 -0.9955 0.0000
vn -0.9988 -0.0483 -0.0000
vn 0.9943 -0.1068 0.0000
vn -0.0995 -0.9950 0.0000
vn -0.2285 0.9735 0.0000
vn 0.0133 0.9999 -0.0000
vn 0.0223 -0.9998 0.0000
vn 0.7009 -0.1937 0.6865
vn 0.9740 -0.2266 0.0000
vn 0.9991 -0.0423 0.0000
vn 0.6995 -0.0331 0.7138
vn -0.3036 -0.1459 -0.9416
vn -0.7009 -0.1937 -0.6865
vn -0.6995 -0.0331 -0.7138
vn -0.2972 -0.0239 -0.9545
vn 0.7009 -0.1937 -0.6865
vn 0.3036 -0.1459 -0.9416
vn 0.2972 -0.0239 -0.9545
vn 0.6995 -0.0331 -0.7138
vn -0.7009 -0.1937 0.6865
vn -0.3036 -0.1459 0.9416
vn -0.2972 -0.0239 0.9545
vn -0.6995 -0.0331 0.7139
vn -0.2924 -0.1161 -0.9492
vn -0.6856 -0.1598 -0.7102
vn -0.6029 0.5464 -0.5813
vn -0.2475 0.6009 -0.7600
vn -0.6856 -0.1598 0.7102
vn -0.2924 -0.1161 0.9492
vn -0.2475 0.6009 0.7600
vn -0.6029 0.5464 0.5813
vn 0.0000 -0.1304 0.9915
vn 0.0000 -0.0214 0.9998
vn 0.2475 0.6009 -0.7600
vn 0.0000 0.6157 -0.7880
vn -0.8690 0.4948 0.0000
vn 0.0000 0.6157 0.7880
vn 0.2475 0.6009 0.7600
vn 0.6029 0.5464 0.5813
vn 0.8690 0.4948 0.0000
vn 0.6029 0.5464 -0.5813
vn 0.3036 -0.1459 0.9416
vn 0.2972 -0.0239 0.9545
vn 0.0000 -0.1304 -0.9915
vn 0.0000 -0.0214 -0.9998
vn 0.6856 -0.1598 -0.7102
vn 0.2924 -0.1161 -0.9492
vn -0.9740 -0.2266 0.0000
vn -0.9991 -0.0423 0.0000
vn 0.1780 -0.7724 0.6096
vn 0.4176 -0.7814 0.4637
vn 0.0000 -0.7694 -0.6387
vn -0.1780 -0.7724 -0.6096
vn 0.4176 -0.7814 -0.4637
vn 0.1780 -0.7724 -0.6096
vn -0.6128 -0.7902 0.0000
vn -0.4176 -0.7814 0.4637
vn 0.0000 -0.7694 0.6387
vn 0.6129 -0.7902 0.0000
vn -0.4176 -0.7814 -0.4637
vn -0.1780 -0.7724 0.6096
vn 0.0000 -0.1043 -0.9945
vn 0.0000 -0.1043 0.9945
vn -0.9786 -0.2056 0.0000
vn 0.9786 -0.2056 0.0000
vn 0.2924 -0.1161 0.9492
vn 0.6856 -0.1598 0.7102
usemtl None
s off
f 1/1/1 2/2/1 4/3/1 3/4/1
f 3/4/1 4/3/1 6/5/1 5/6/1
f 5/6/1 6/5/1 8/7/1 7/8/1
f 7/8/1 8/7/1 10/9/1 9/10/1
f 9/10/1 10/9/1 12/11/1 11/12/1
f 11/12/1 12/11/1 14/13/1 13/14/1
f 13/14/1 14/13/1 16/15/1 15/16/1
f 15/16/1 16/15/1 18/17/1 17/18/1
f 17/18/1 18/17/1 20/19/1 19/20/1
f 4/3/1 2/2/1 70/21/1 71/22/1
f 2/2/1 1/1/1 21/23/1 22/24/1
f 22/24/1 21/23/1 23/25/1 24/26/1
f 24/26/1 23/25/1 25/27/1 26/28/1
f 26/28/1 25/27/1 27/29/1 28/30/1
f 28/30/1 27/29/1 29/31/1 30/32/1
f 30/32/1 29/31/1 31/33/1 32/34/1
f 32/34/2 31/33/2 33/35/2
f 1/1/1 3/4/1 72/36/1 73/37/1
f 36/38/3 38/39/3 39/40/3 37/41/3
f 38/39/3 40/42/3 41/43/3 39/40/3
f 40/42/3 42/44/3 43/45/3 41/43/3
f 42/44/3 44/46/3 45/47/3 43/45/3
f 44/46/3 46/48/3 47/49/3 45/47/3
f 46/48/3 48/50/3 49/51/3 47/49/3
f 48/50/3 50/52/3 51/53/3 49/51/3
f 50/52/3 52/54/3 53/55/3 51/53/3
f 52/54/3 54/56/3 55/57/3 53/55/3
f 39/40/3 75/58/3 74/59/3 37/41/3
f 37/41/3 57/60/3 56/61/3 36/38/3
f 57/60/3 59/62/3 58/63/3 56/61/3
f 59/62/3 61/64/3 60/65/3 58/63/3
f 61/64/3 63/66/3 62/67/3 60/65/3
f 63/66/3 65/68/3 64/69/3 62/67/3
f 65/68/3 67/70/3 66/71/3 64/69/3
f 67/70/4 33/35/4 66/71/4
f 36/38/3 77/72/3 76/73/3 38/39/3
f 13/14/5 48/50/5 46/48/5 11/12/5
f 30/74/6 65/75/6 63/76/6 28/77/6
f 4/78/7 39/79/7 41/80/7 6/81/7
f 1/1/8 36/38/8 56/61/8 21/23/8
f 5/6/9 40/42/9 38/39/9 3/4/9
f 22/82/10 57/83/10 37/84/10 2/85/10
f 14/86/11 49/87/11 51/88/11 16/89/11
f 29/31/12 64/69/12 66/71/12 31/33/12
f 15/16/13 50/52/13 48/50/13 13/14/13
f 32/90/14 67/91/14 65/75/14 30/74/14
f 6/81/15 41/80/15 43/92/15 8/93/15
f 21/23/16 56/61/16 58/63/16 23/25/16
f 31/33/17 66/71/17 33/35/17
f 7/8/18 42/44/18 40/42/18 5/6/18
f 24/94/19 59/95/19 57/83/19 22/82/19
f 16/89/20 51/88/20 53/96/20 18/97/20
f 17/18/21 52/54/21 50/52/21 15/16/21
f 3/4/22 38/39/22 76/73/22 72/36/22
f 8/93/23 43/92/23 45/98/23 10/99/23
f 23/25/24 58/63/24 60/65/24 25/27/24
f 20/100/25 55/101/25 54/102/25 19/103/25
f 73/37/26 77/72/26 36/38/26 1/1/26
f 9/10/27 44/46/27 42/44/27 7/8/27
f 26/104/28 61/105/28 59/95/28 24/94/28
f 18/97/29 53/96/29 55/101/29 20/100/29
f 33/106/30 67/91/30 32/90/30
f 19/20/31 54/56/31 52/54/31 17/18/31
f 10/99/32 45/98/32 47/107/32 12/108/32
f 25/27/33 60/65/33 62/67/33 27/29/33
f 11/12/34 46/48/34 44/46/34 9/10/34
f 28/77/35 63/76/35 61/105/35 26/104/35
f 2/85/36 37/84/36 74/109/36 70/110/36
f 71/111/37 75/112/37 39/79/37 4/78/37
f 12/108/38 47/107/38 49/87/38 14/86/38
f 27/29/39 62/67/39 64/69/39 29/31/39
f 34/113/40 73/37/40 72/36/40 35/114/40
f 69/115/40 76/73/40 77/72/40 68/116/40
f 68/116/40 77/72/40 73/37/40 34/113/40
f 35/114/40 72/36/40 76/73/40 69/115/40
f 74/117/41 75/118/41 71/119/41 70/120/41
s 1
f 82/121/42 81/122/43 132/123/44 115/124/45
f 89/125/46 88/126/47 134/127/48 119/128/49
f 80/129/50 79/130/51 123/131/52 124/132/53
f 86/133/54 85/134/55 136/135/56 127/136/57
f 118/137/58 135/138/59 100/139/60 101/140/61
f 126/141/62 137/142/63 97/143/64 98/144/65
f 85/134/55 84/145/66 130/146/67 136/135/56
f 91/147/68 90/148/69 101/149/61 100/150/60 99/151/70 98/152/65 97/153/64 96/154/71 95/155/72 94/156/73 93/157/74 92/158/75
f 83/159/76 82/121/42 115/124/45 116/160/77
f 78/161/78 89/125/46 119/128/49 120/162/79
f 125/163/80 122/164/81 91/165/68 92/166/75
f 87/167/82 86/133/54 127/136/57 128/168/83
f 82/121/42 83/159/76 107/169/84 106/170/85
f 89/125/46 78/161/78 102/171/86 113/172/87
f 79/130/51 80/129/50 104/173/88 103/174/89
f 86/133/54 87/167/82 111/175/90 110/176/91
f 83/159/76 84/145/66 108/177/92 107/169/84
f 80/129/50 81/122/43 105/178/93 104/173/88
f 87/179/82 88/126/47 112/180/94 111/181/90
f 84/145/66 85/134/55 109/182/95 108/177/92
f 81/122/43 82/121/42 106/170/85 105/178/93
f 88/126/47 89/125/46 113/172/87 112/180/94
f 78/161/78 79/130/51 103/174/89 102/171/86
f 85/134/55 86/133/54 110/176/91 109/182/95
f 103/183/89 104/184/88 105/185/93 106/186/85 107/187/84 108/188/92 109/189/95 110/190/91 111/191/90 112/192/94 113/193/87 102/194/86
f 88/126/47 87/179/82 128/195/83 134/127/48
f 122/164/81 121/196/96 90/197/69 91/165/68
f 79/130/51 78/161/78 120/162/79 123/131/52
f 84/145/66 83/159/76 116/160/77 130/146/67
f 137/142/63 131/198/97 96/199/71 97/143/64
f 135/138/59 129/200/98 99/201/70 100/139/60
f 133/202/99 125/163/80 92/166/75 93/203/74
f 131/198/97 117/204/100 95/205/72 96/199/71
f 129/206/98 126/141/62 98/144/65 99/207/70
f 81/122/43 80/129/50 124/132/53 132/123/44
f 121/196/96 118/137/58 101/140/61 90/197/69
f 117/204/100 114/208/101 94/209/73 95/205/72
f 137/142/63 126/141/62 127/136/57 136/135/56
f 121/196/96 122/164/81 123/131/52 120/162/79
f 135/138/59 118/137/58 119/128/49 134/127/48
f 133/202/99 114/208/101 115/124/45 132/123/44
f 131/198/97 137/142/63 136/135/56 130/146/67
f 129/200/98 135/138/59 134/127/48 128/195/83
f 125/163/80 133/202/99 132/123/44 124/132/53
f 117/204/100 131/198/97 130/146/67 116/160/77
f 126/141/62 129/206/98 128/168/83 127/136/57
f 122/164/81 125/163/80 124/132/53 123/131/52
f 118/137/58 121/196/96 120/162/79 119/128/49
f 114/208/101 117/204/100 116/160/77 115/124/45
f 114/208/101 133/202/99 93/203/74 94/209/73
