# Blender v2.90.1 OBJ File: 'MiniAxe.blend'
# www.blender.org
mtllib MiniAxe.mtl
o MiniAxe_Cube.003
v -0.051122 0.511742 -0.032095
v -0.051122 0.475357 -0.032095
v -0.051122 0.511742 0.032112
v -0.051122 0.475357 0.032112
v -0.238617 0.470599 0.000211
v -0.238617 0.510392 0.000211
v 0.073275 0.548127 0.023590
v 0.069032 0.548127 0.029616
v 0.073275 0.548127 -0.023573
v 0.069032 0.548127 -0.029599
v 0.073275 0.511742 -0.023573
v 0.058787 0.511742 -0.032095
v 0.069032 0.511742 -0.029599
v 0.058787 0.475357 -0.032095
v 0.073275 0.475357 -0.023573
v 0.069032 0.475357 -0.029599
v 0.073275 0.475357 0.023590
v 0.058787 0.475357 0.032112
v 0.069032 0.475357 0.029616
v 0.058787 0.511742 0.032112
v 0.073275 0.511742 0.023590
v 0.069032 0.511742 0.029616
v -0.051122 0.539020 0.032112
v -0.051122 0.548127 0.026705
v -0.051122 0.545460 0.030528
v -0.051122 0.548127 -0.026688
v -0.051122 0.539017 -0.032095
v -0.051122 0.545459 -0.030512
v -0.051122 0.438971 0.026705
v -0.051122 0.448015 0.032112
v -0.051122 0.441620 0.030528
v -0.051122 0.448018 -0.032095
v -0.051122 0.438971 -0.026688
v -0.051122 0.441621 -0.030512
v -0.186902 0.583941 0.000008
v -0.216147 0.582512 0.000064
v -0.206872 0.586530 0.000025
v -0.216200 0.404511 0.000066
v -0.186902 0.403158 0.000008
v -0.206887 0.400546 0.000025
v 0.069032 0.548127 0.029616
v 0.058787 0.539025 0.032112
v 0.061788 0.545461 0.031381
v 0.058787 0.539022 -0.032095
v 0.069032 0.548127 -0.029599
v 0.061788 0.545461 -0.031364
v 0.064301 0.438971 0.022540
v 0.073275 0.447992 0.023590
v 0.070647 0.441613 0.023282
v 0.057506 0.438971 0.026710
v 0.058787 0.448003 0.032112
v 0.058412 0.441617 0.030530
v 0.062163 0.438971 0.025576
v 0.069032 0.447996 0.029616
v 0.067020 0.441615 0.028433
v 0.057506 0.438971 -0.026693
v 0.058787 0.448005 -0.032095
v 0.058412 0.441617 -0.030513
v 0.064301 0.438971 -0.022523
v 0.073275 0.447993 -0.023573
v 0.070647 0.441614 -0.023265
v 0.062163 0.438971 -0.025559
v 0.069032 0.447997 -0.029599
v 0.067020 0.441615 -0.028416
v -0.051122 0.461686 0.032112
v -0.229911 0.431228 0.000139
v 0.058787 0.461680 0.032112
v -0.051122 0.461687 -0.032095
v 0.058787 0.461681 -0.032095
v 0.073275 0.461675 0.023590
v 0.069032 0.461676 0.029616
v 0.073275 0.461675 -0.023573
v 0.069032 0.461677 -0.029599
v -0.051122 0.525042 0.032112
v 0.058787 0.525044 0.032112
v -0.230084 0.552040 0.000140
v -0.051122 0.525040 -0.032095
v 0.058787 0.525043 -0.032095
v -0.003240 0.105568 -0.016969
v -0.011716 0.105568 -0.013285
v -0.009233 0.105568 -0.015890
v -0.016238 0.201621 -0.013255
v -0.007915 0.201621 -0.016939
v -0.013800 0.201621 -0.015860
v -0.041633 0.333278 -0.016961
v -0.033584 0.333278 -0.020655
v -0.039275 0.333278 -0.019573
v 0.031582 0.333278 -0.016899
v 0.024315 0.333278 -0.020655
v 0.029453 0.333278 -0.019555
v 0.043804 0.201621 -0.013174
v 0.036551 0.201621 -0.016939
v 0.041680 0.201621 -0.015836
v 0.048434 0.105568 -0.013183
v 0.041168 0.105568 -0.016969
v 0.046306 0.105568 -0.015860
v -0.041633 0.333278 0.016961
v -0.033584 0.333278 0.020655
v -0.039275 0.333278 0.019573
v -0.016238 0.201621 0.013255
v -0.007915 0.201621 0.016939
v -0.013800 0.201621 0.015860
v -0.011716 0.105568 0.013285
v -0.003240 0.105568 0.016969
v -0.009233 0.105568 0.015890
v 0.041168 0.105568 0.016969
v 0.048434 0.105568 0.013183
v 0.046306 0.105568 0.015860
v 0.043804 0.201621 0.013174
v 0.036551 0.201621 0.016939
v 0.041680 0.201621 0.015836
v 0.031582 0.333278 0.016899
v 0.024315 0.333278 0.020655
v 0.029453 0.333278 0.019555
v 0.023864 0.006701 -0.018275
v 0.031034 0.006701 -0.003379
v 0.028934 0.006701 -0.013912
v -0.027870 0.008820 -0.014564
v -0.017629 0.008820 -0.018275
v -0.024871 0.008820 -0.017188
v -0.017629 0.008820 0.018275
v -0.027870 0.008820 0.014564
v -0.024871 0.008820 0.017188
v 0.031034 0.006701 0.003379
v 0.023864 0.006701 0.018275
v 0.028934 0.006701 0.013912
v -0.056711 0.026835 0.021263
v -0.046558 0.026792 0.024956
v -0.053738 0.026822 0.023878
v -0.037219 0.057337 0.023720
v -0.046975 0.057235 0.020043
v -0.044118 0.057265 0.022649
v 0.037358 0.058118 0.019803
v 0.030046 0.058041 0.023621
v 0.035216 0.058095 0.022498
v 0.024547 0.026488 0.024890
v 0.034556 0.042287 0.020330
v 0.030463 0.031103 0.023552
v -0.046558 0.026792 -0.024956
v -0.056711 0.026835 -0.021263
v -0.053738 0.026822 -0.023878
v -0.046975 0.057235 -0.020043
v -0.037219 0.057337 -0.023720
v -0.044118 0.057265 -0.022649
v 0.030046 0.058041 -0.023621
v 0.037358 0.058118 -0.019803
v 0.035216 0.058095 -0.022498
v 0.034556 0.042287 -0.020330
v 0.024547 0.026488 -0.024890
v 0.030463 0.031103 -0.023552
v -0.028319 0.463136 -0.026245
v -0.036290 0.463136 -0.022543
v -0.033955 0.463136 -0.025161
v 0.049554 0.463136 0.026245
v 0.056738 0.463136 0.022490
v 0.054634 0.463136 0.025145
v 0.049554 0.463136 -0.026245
v 0.056738 0.463136 -0.022490
v 0.054634 0.463136 -0.025145
v -0.028319 0.463136 0.026245
v -0.036290 0.463136 0.022543
v -0.033955 0.463136 0.025161
v -0.021218 0.557264 0.019008
v -0.029368 0.527207 0.020583
v -0.025636 0.548461 0.019741
v -0.017347 0.557264 0.020599
v -0.021480 0.526508 0.024306
v -0.018895 0.548256 0.022830
v -0.020309 0.557264 0.020028
v -0.027059 0.526986 0.023207
v -0.023728 0.548396 0.021892
v 0.048639 0.557264 0.020599
v 0.049553 0.525983 0.024322
v 0.049285 0.548102 0.022835
v 0.051796 0.557264 0.019022
v 0.056712 0.525352 0.020586
v 0.055267 0.547917 0.019724
v 0.050950 0.557264 0.020096
v 0.054615 0.525595 0.023234
v 0.053537 0.547989 0.021914
v -0.017347 0.557264 -0.020599
v -0.021480 0.526508 -0.024306
v -0.018895 0.548256 -0.022830
v -0.021218 0.557264 -0.019008
v -0.029368 0.527207 -0.020583
v -0.025636 0.548461 -0.019741
v -0.020309 0.557264 -0.020028
v -0.027059 0.526986 -0.023207
v -0.023728 0.548396 -0.021892
v 0.051796 0.557264 -0.019022
v 0.056712 0.525352 -0.020586
v 0.055267 0.547917 -0.019724
v 0.048639 0.557264 -0.020599
v 0.049553 0.525983 -0.024322
v 0.049285 0.548102 -0.022835
v 0.050950 0.557264 -0.020096
v 0.054615 0.525595 -0.023234
v 0.053537 0.547989 -0.021914
vt 0.616448 0.156115
vt 0.624963 0.064155
vt 0.632696 0.064611
vt 0.624042 0.156499
vt 0.797037 0.789923
vt 0.866645 0.800599
vt 0.867938 0.827169
vt 0.812926 0.817279
vt 0.806280 0.165975
vt 0.804612 0.080833
vt 0.812315 0.080328
vt 0.813920 0.165446
vt 0.679900 0.767958
vt 0.757683 0.766947
vt 0.765997 0.791395
vt 0.691322 0.812464
vt 0.801590 0.166198
vt 0.799865 0.080927
vt 0.773650 0.788930
vt 0.789583 0.788544
vt 0.801906 0.814175
vt 0.763538 0.820725
vt 0.885411 0.758676
vt 0.898766 0.689348
vt 0.937690 0.690815
vt 0.941470 0.766086
vt 0.895991 0.546598
vt 0.935162 0.547611
vt 0.915403 0.156404
vt 0.890539 0.345748
vt 0.808720 0.340395
vt 0.795797 0.339555
vt 0.751601 0.340245
vt 0.742637 0.166569
vt 0.814302 0.691147
vt 0.886064 0.689631
vt 0.873276 0.759157
vt 0.802837 0.764676
vt 0.883107 0.545630
vt 0.810439 0.540023
vt 0.663664 0.692298
vt 0.739122 0.689884
vt 0.667242 0.544777
vt 0.739366 0.539602
vt 0.903337 0.346458
vt 0.927401 0.155860
vt 0.993583 0.155809
vt 0.954262 0.352524
vt 0.796026 0.538798
vt 0.753649 0.538165
vt 0.801017 0.693949
vt 0.753111 0.691886
vt 0.881662 0.780408
vt 0.938154 0.789635
vt 0.901695 0.834556
vt 0.892098 0.832216
vt 0.687986 0.894059
vt 0.692919 0.889600
vt 0.704970 0.887590
vt 0.774276 0.886460
vt 0.782852 0.893601
vt 0.786641 0.911115
vt 0.786825 0.922387
vt 0.783608 0.940016
vt 0.775269 0.947432
vt 0.705963 0.948561
vt 0.693853 0.946944
vt 0.688778 0.942648
vt 0.738716 0.341266
vt 0.658265 0.347321
vt 0.730191 0.165870
vt 0.793521 0.766966
vt 0.767348 0.768544
vt 0.751280 0.825592
vt 0.692963 0.840568
vt 0.740273 0.080172
vt 0.737908 0.166367
vt 0.732486 0.079548
vt 0.921761 0.069369
vt 0.922654 0.155971
vt 0.916955 0.069602
vt 0.909673 0.069680
vt 0.981185 0.058851
vt 0.611411 0.156053
vt 0.619903 0.063669
vt 0.801401 0.539109
vt 0.806109 0.693299
vt 0.800674 0.339745
vt 0.898266 0.346062
vt 0.890939 0.546274
vt 0.893781 0.689471
vt 0.746734 0.340504
vt 0.748321 0.538563
vt 0.747796 0.691560
vt 0.650169 0.692171
vt 0.654239 0.545739
vt 0.659382 0.545415
vt 0.655469 0.692252
vt 0.645485 0.348390
vt 0.650545 0.347847
vt 0.874184 0.794811
vt 0.880635 0.758766
vt 0.796796 0.766508
vt 0.792302 0.788566
vt 0.764026 0.768337
vt 0.770875 0.789315
vt 0.682608 0.807095
vt 0.671761 0.768041
vt 0.672887 0.792204
vt 0.666460 0.768251
vt 0.758893 0.821449
vt 0.805966 0.814368
vt 0.668637 0.848312
vt 0.683481 0.842838
vt 0.877192 0.828436
vt 0.745064 0.080331
vt 0.834050 0.918899
vt 0.835571 0.917199
vt 0.840514 0.916258
vt 0.950601 0.916492
vt 0.954455 0.917339
vt 0.955863 0.919133
vt 0.955728 0.982605
vt 0.954312 0.984393
vt 0.950455 0.985223
vt 0.840368 0.984990
vt 0.835429 0.984027
vt 0.833916 0.982321
vt 0.801671 0.037581
vt 0.803778 0.037424
vt 0.803541 0.051691
vt 0.799609 0.051984
vt 0.808400 0.036288
vt 0.810141 0.050282
vt 0.634888 0.017389
vt 0.636856 0.018107
vt 0.631595 0.031693
vt 0.627557 0.030619
vt 0.640395 0.018685
vt 0.637898 0.032518
vt 0.909904 0.025049
vt 0.911930 0.024655
vt 0.916728 0.038339
vt 0.912896 0.038881
vt 0.906312 0.025134
vt 0.906906 0.038980
vt 0.742065 0.036956
vt 0.744115 0.037181
vt 0.745773 0.051257
vt 0.741881 0.050900
vt 0.737590 0.035645
vt 0.735349 0.049359
vt 0.973036 0.024557
vt 0.968151 0.009753
vt 0.169631 0.046962
vt 0.230334 0.046962
vt 0.230334 0.125646
vt 0.169631 0.125646
vt 0.085351 0.985472
vt 0.085562 0.782399
vt 0.153048 0.783250
vt 0.153030 0.985396
vt 0.501799 0.402590
vt 0.524578 0.401503
vt 0.610459 0.678308
vt 0.566839 0.702950
vt 0.396220 0.407556
vt 0.418382 0.406516
vt 0.435543 0.723477
vt 0.365438 0.712708
vt 0.543679 0.905693
vt 0.611207 0.903944
vt 0.611227 0.905121
vt 0.613558 0.908545
vt 0.613141 0.935049
vt 0.610703 0.938398
vt 0.610646 0.939576
vt 0.543206 0.935699
vt 0.519327 0.117481
vt 0.338098 0.117489
vt 0.330329 0.115596
vt 0.326762 0.110532
vt 0.326762 0.035351
vt 0.330329 0.030287
vt 0.338098 0.028394
vt 0.519327 0.028402
vt 0.060712 0.985451
vt 0.061072 0.782639
vt 0.178259 0.985337
vt 0.178123 0.784028
vt 0.202472 0.785098
vt 0.203462 0.985243
vt 0.410793 0.986277
vt 0.410698 0.784274
vt 0.436264 0.784981
vt 0.436593 0.986270
vt 0.293710 0.985768
vt 0.294274 0.785451
vt 0.319194 0.784710
vt 0.318818 0.985886
vt 0.479019 0.403665
vt 0.501859 0.720358
vt 0.224663 0.687158
vt 0.201855 0.687154
vt 0.209790 0.369850
vt 0.275524 0.384151
vt 0.386288 0.784005
vt 0.386250 0.986263
vt 0.304229 0.341131
vt 0.300982 0.252111
vt 0.536725 0.288080
vt 0.141152 0.687155
vt 0.143401 0.369851
vt 0.386408 0.764365
vt 0.453945 0.765023
vt 0.453923 0.766200
vt 0.448154 0.779860
vt 0.293264 0.766290
vt 0.318674 0.765147
vt 0.108928 0.046962
vt 0.108928 0.125646
vt 0.180300 0.750783
vt 0.206284 0.753962
vt 0.203492 0.766868
vt 0.179184 0.764744
vt 0.386411 0.750633
vt 0.454092 0.751346
vt 0.017687 0.763262
vt 0.085479 0.762698
vt 0.035414 0.783316
vt 0.023482 0.778160
vt 0.017708 0.764441
vt 0.017565 0.749501
vt 0.085497 0.748896
vt 0.292194 0.752415
vt 0.318258 0.751278
vt 0.154063 0.749559
vt 0.153608 0.763521
vt 0.086102 0.046962
vt 0.086101 0.125646
vt 0.118962 0.687158
vt 0.095642 0.687176
vt 0.022874 0.406766
vt 0.073872 0.383866
vt 0.326374 0.455646
vt 0.266205 0.686408
vt 0.258454 0.686762
vt 0.327298 0.422038
vt 0.247470 0.687176
vt 0.320270 0.406683
vt 0.543332 0.401395
vt 0.614188 0.629097
vt 0.616724 0.662627
vt 0.535572 0.401402
vt 0.305001 0.643646
vt 0.354154 0.410299
vt 0.361899 0.409573
vt 0.305644 0.677238
vt 0.372928 0.408636
vt 0.313435 0.692195
vt 0.076818 0.686403
vt 0.016667 0.455641
vt 0.015763 0.422058
vt 0.084587 0.686761
vt 0.226949 0.770494
vt 0.223351 0.776955
vt 0.214296 0.770499
vt 0.218351 0.759779
vt 0.222894 0.786257
vt 0.214319 0.785551
vt 0.249317 0.778313
vt 0.245757 0.771876
vt 0.254339 0.761243
vt 0.258341 0.771916
vt 0.266356 0.755496
vt 0.269094 0.768335
vt 0.249745 0.787567
vt 0.258278 0.786886
vt 0.270060 0.786464
vt 0.457438 0.986272
vt 0.448806 0.986250
vt 0.034812 0.985407
vt 0.022546 0.985371
vt 0.013879 0.985381
vt 0.040296 0.123894
vt 0.040296 0.048713
vt 0.051765 0.047475
vt 0.051765 0.125132
vt 0.063275 0.046962
vt 0.063275 0.125646
vt 0.215796 0.985169
vt 0.224311 0.985109
vt 0.268630 0.985616
vt 0.256360 0.985515
vt 0.247887 0.985435
vt 0.249458 0.248078
vt 0.245772 0.337081
vt 0.013541 0.282885
vn 0.2118 0.0299 0.9768
vn -0.0067 -0.3366 -0.9416
vn -0.1888 0.0504 -0.9807
vn 0.0011 0.0401 0.9992
vn -0.7427 0.1005 -0.6621
vn -0.5298 -0.8481 0.0000
vn 0.9738 -0.2273 0.0000
vn 0.9988 0.0481 0.0000
vn 0.0000 -0.0430 -0.9991
vn -0.9992 0.0411 0.0000
vn 0.0000 0.1386 -0.9903
vn 0.0000 -0.0282 -0.9996
vn 0.0000 0.1386 0.9903
vn 0.0000 0.0003 1.0000
vn 0.9817 -0.1902 0.0000
vn -0.9819 -0.1894 0.0000
vn -0.9989 -0.0470 0.0000
vn 0.9951 -0.0985 0.0000
vn -0.0374 -0.9993 -0.0000
vn 0.0000 -0.0430 0.9991
vn -0.8079 0.5893 0.0000
vn 0.9847 -0.1743 0.0000
vn 0.0011 0.0401 -0.9992
vn -0.9523 0.3050 0.0000
vn -0.0067 -0.3366 0.9416
vn 0.0000 0.0003 -1.0000
vn -0.1888 0.0504 0.9807
vn 0.9957 0.0924 0.0000
vn 0.0000 -0.0282 0.9996
vn 0.7841 0.0193 -0.6203
vn 0.0000 0.0306 -0.9995
vn 1.0000 0.0004 0.0000
vn 0.7841 0.0193 0.6203
vn -0.7266 -0.0342 -0.6862
vn -0.1787 -0.0083 -0.9839
vn -0.7269 -0.1592 -0.6681
vn -0.1831 -0.0632 -0.9811
vn 0.7699 -0.1756 -0.6135
vn 0.2097 -0.0827 -0.9743
vn 0.7798 0.0548 -0.6236
vn 0.2098 -0.0081 -0.9777
vn 0.7817 0.0378 -0.6225
vn 0.2106 0.0104 -0.9775
vn -0.7444 0.0018 0.6678
vn -0.1877 -0.0346 0.9816
vn -0.7269 -0.1592 0.6681
vn -0.1831 -0.0632 0.9811
vn -0.7266 -0.0342 0.6862
vn -0.1787 -0.0083 0.9839
vn 0.7817 0.0378 0.6225
vn 0.2106 0.0104 0.9775
vn 0.7798 0.0548 0.6236
vn 0.2098 -0.0081 0.9777
vn 0.7856 -0.1162 -0.6077
vn 0.2164 0.0008 -0.9763
vn -0.6486 0.2355 -0.7237
vn -0.1506 0.0866 -0.9848
vn -0.1506 0.0866 0.9848
vn -0.6486 0.2355 0.7237
vn 0.2164 0.0008 0.9763
vn 0.7856 -0.1162 0.6077
vn -0.1279 -0.5195 0.8448
vn -0.3957 -0.8010 0.4492
vn -0.1279 -0.5195 -0.8448
vn -0.3957 -0.8010 -0.4492
vn -0.5982 0.5195 0.6101
vn -0.1607 0.2483 0.9553
vn 0.7795 -0.0956 0.6191
vn 0.2104 0.0870 0.9737
vn -0.1607 0.2483 -0.9553
vn -0.5982 0.5195 -0.6101
vn 0.9440 -0.1969 0.2649
vn 0.5380 -0.3146 0.7821
vn 0.5380 -0.3146 -0.7821
vn 0.9440 -0.1969 -0.2649
vn 0.2104 0.0870 -0.9737
vn 0.7795 -0.0956 -0.6191
vn -0.7444 0.0018 -0.6678
vn -0.1877 -0.0346 -0.9816
vn 0.7699 -0.1756 0.6135
vn 0.2097 -0.0827 0.9743
vn 0.2118 0.0299 -0.9768
vn -0.9942 0.1074 0.0000
vn -0.0000 0.0306 0.9995
vn 0.0000 1.0000 -0.0000
vn -0.6834 0.3934 -0.6150
vn -0.7359 0.1552 -0.6591
vn -0.1785 0.2666 -0.9471
vn -0.1861 0.0888 -0.9785
vn 0.7467 0.3217 0.5823
vn 0.7845 0.0739 0.6157
vn 0.2097 0.2449 0.9466
vn 0.2139 0.0679 0.9745
vn 0.7467 0.3217 -0.5823
vn 0.7845 0.0739 -0.6157
vn 0.2097 0.2449 -0.9466
vn 0.2139 0.0679 -0.9745
vn -0.6834 0.3934 0.6150
vn -0.7359 0.1552 0.6591
vn -0.1785 0.2666 0.9471
vn -0.1861 0.0888 0.9785
vn -0.8938 0.4485 0.0000
vn -0.9849 0.1729 0.0000
vn 0.0002 0.0674 0.9977
vn 0.0002 0.2388 0.9711
vn 0.9980 0.0639 0.0000
vn 0.9375 0.3481 0.0000
vn 0.0002 0.0674 -0.9977
vn 0.0002 0.2388 -0.9711
vn -0.7427 0.1005 0.6621
vn 0.9533 0.0000 -0.3020
vn 0.7285 0.6450 -0.2308
vn 0.7285 0.6450 0.2308
vn 0.9533 0.0000 0.3020
vn -0.0857 0.0064 -0.9963
vn 0.1192 0.0000 -0.9929
vn -0.0855 -0.0066 -0.9963
vn -0.0861 -0.0201 -0.9961
vn -0.0758 -0.1298 -0.9886
vn -0.1586 -0.1110 -0.9811
vn -0.1714 -0.0399 -0.9844
vn -0.0866 0.0189 -0.9961
vn -0.1707 0.0118 -0.9853
vn -0.1724 0.0375 -0.9843
vn 0.0887 0.9318 0.3521
vn 0.1388 0.7125 0.6878
vn 0.4967 0.4711 0.7289
vn 0.4967 0.4711 -0.7289
vn 0.1388 0.7124 -0.6879
vn 0.0885 0.9316 -0.3526
vn 0.0905 -0.9429 -0.3204
vn 0.0349 -0.9494 -0.3120
vn 0.1382 -0.9530 -0.2697
vn 0.2220 -0.9716 -0.0817
vn 0.2220 -0.9716 0.0817
vn 0.1382 -0.9530 0.2697
vn 0.0349 -0.9494 0.3120
vn 0.0907 -0.9431 0.3198
vn 0.1193 -0.1224 -0.9853
vn -0.0857 0.0202 0.9961
vn 0.1192 -0.0000 0.9929
vn 0.1016 0.0575 0.9932
vn -0.0762 0.1141 0.9905
vn -0.0851 -0.0214 0.9961
vn -0.0845 -0.0072 0.9964
vn -0.1704 -0.0126 -0.9853
vn -0.1683 -0.0137 0.9856
vn -0.1696 -0.0425 0.9846
vn -0.0847 0.0070 0.9964
vn 0.1374 -0.9905 -0.0011
vn -0.1687 0.0128 0.9856
vn 0.5631 0.0000 0.8264
vn 0.0915 0.3820 0.9196
vn 0.9384 -0.1860 -0.2913
vn 0.5676 -0.1556 -0.8085
vn 0.5631 0.0000 -0.8264
vn 0.1016 0.0574 -0.9932
vn 0.0915 0.3819 -0.9196
vn -0.1577 0.1127 0.9810
vn -0.1706 0.0400 0.9845
vn -0.0148 -0.5442 0.8388
vn -0.3171 -0.9484 -0.0028
vn -0.0748 -0.1318 0.9884
vn -0.1568 -0.1149 0.9809
vn -0.0156 -0.5424 -0.8399
vn 0.1365 0.9906 -0.0010
vn -0.0199 0.4966 -0.8678
vn -0.3207 0.9472 -0.0027
vn -0.0771 0.1121 -0.9907
vn -0.1594 0.1090 -0.9812
vn -0.0191 0.4984 0.8668
vn 0.4400 -0.6117 -0.6575
vn 0.7083 -0.6680 -0.2284
vn 0.0992 -0.5616 -0.8214
vn 0.7083 -0.6680 0.2284
vn 0.4400 -0.6117 0.6575
vn 0.9384 -0.1860 0.2913
vn 0.5676 -0.1556 0.8085
vn 0.0992 -0.5617 0.8214
vn 0.1193 -0.1224 0.9853
usemtl None
s off
f 156/1/1 179/2/1 173/3/1 154/4/1
f 139/5/2 149/6/2 115/7/2 119/8/2
f 153/9/3 188/10/3 182/11/3 151/12/3
f 134/13/4 130/14/4 128/15/4 136/16/4
f 152/17/5 185/18/5 188/10/5 153/9/5
f 127/19/6 140/20/6 118/21/6 122/22/6
f 146/23/7 94/24/7 107/25/7 133/26/7
f 94/24/8 91/27/8 109/28/8 107/25/8
f 151/12/9 157/29/9 89/30/9 86/31/9
f 152/17/10 85/32/10 97/33/10 161/34/10
f 79/35/11 95/36/11 145/37/11 143/38/11
f 86/31/12 89/30/12 92/39/12 83/40/12
f 130/14/13 134/13/13 106/41/13 104/42/13
f 104/42/14 106/41/14 110/43/14 101/44/14
f 88/45/15 158/46/15 155/47/15 112/48/15
f 85/32/16 82/49/16 100/50/16 97/33/16
f 82/49/17 80/51/17 103/52/17 100/50/17
f 148/53/18 137/54/18 124/55/18 116/56/18
f 118/57/19 120/58/19 119/59/19 115/60/19 117/61/19 116/62/19 124/63/19 126/64/19 125/65/19 121/66/19 123/67/19 122/68/19
f 98/69/20 113/70/20 154/4/20 160/71/20
f 80/51/21 142/72/21 131/73/21 103/52/21
f 146/23/22 133/26/22 137/54/22 148/53/22
f 149/6/23 139/5/23 143/38/23 145/37/23
f 131/73/24 142/72/24 140/20/24 127/19/24
f 136/16/25 128/15/25 121/74/25 125/75/25
f 83/40/26 92/39/26 95/36/26 79/35/26
f 170/76/27 162/77/27 160/71/27 167/78/27
f 91/27/28 88/45/28 112/48/28 109/28/28
f 101/44/29 110/43/29 113/70/29 98/69/29
f 191/79/30 158/46/30 159/80/30 197/81/30
f 182/11/31 194/82/31 157/29/31 151/12/31
f 158/46/32 191/79/32 176/83/32 155/47/32
f 155/84/33 176/85/33 179/2/33 156/1/33
f 80/51/34 82/49/34 84/86/34 81/87/34
f 81/87/35 84/86/35 83/40/35 79/35/35
f 82/49/36 85/32/36 87/88/36 84/86/36
f 84/86/37 87/88/37 86/31/37 83/40/37
f 158/46/38 88/45/38 90/89/38 159/80/38
f 159/80/39 90/89/39 89/30/39 157/29/39
f 88/45/40 91/27/40 93/90/40 90/89/40
f 90/89/41 93/90/41 92/39/41 89/30/41
f 91/27/42 94/24/42 96/91/42 93/90/42
f 93/90/43 96/91/43 95/36/43 92/39/43
f 161/34/44 97/33/44 99/92/44 162/77/44
f 162/77/45 99/92/45 98/69/45 160/71/45
f 97/33/46 100/50/46 102/93/46 99/92/46
f 99/92/47 102/93/47 101/44/47 98/69/47
f 100/50/48 103/52/48 105/94/48 102/93/48
f 102/93/49 105/94/49 104/42/49 101/44/49
f 107/95/50 109/96/50 111/97/50 108/98/50
f 108/98/51 111/97/51 110/43/51 106/41/51
f 109/96/52 112/99/52 114/100/52 111/97/52
f 111/97/53 114/100/53 113/70/53 110/43/53
f 146/23/54 148/53/54 150/101/54 147/102/54
f 147/102/55 150/101/55 149/6/55 145/37/55
f 140/20/56 142/72/56 144/103/56 141/104/56
f 141/104/57 144/103/57 143/38/57 139/5/57
f 128/15/58 130/14/58 132/105/58 129/106/58
f 129/106/59 132/105/59 131/73/59 127/19/59
f 134/13/60 136/16/60 138/107/60 135/108/60
f 135/108/61 138/107/61 137/109/61 133/110/61
f 121/74/62 128/15/62 129/106/62 123/111/62
f 123/111/63 129/106/63 127/19/63 122/22/63
f 139/5/64 119/8/64 120/112/64 141/104/64
f 141/104/65 120/112/65 118/21/65 140/20/65
f 103/52/66 131/73/66 132/105/66 105/94/66
f 105/94/67 132/105/67 130/14/67 104/42/67
f 133/110/68 107/95/68 108/98/68 135/108/68
f 135/108/69 108/98/69 106/41/69 134/13/69
f 79/35/70 143/38/70 144/103/70 81/87/70
f 81/87/71 144/103/71 142/72/71 80/51/71
f 124/113/72 137/109/72 138/107/72 126/114/72
f 126/114/73 138/107/73 136/16/73 125/75/73
f 115/7/74 149/6/74 150/101/74 117/115/74
f 117/115/75 150/101/75 148/53/75 116/56/75
f 145/37/76 95/36/76 96/91/76 147/102/76
f 147/102/77 96/91/77 94/24/77 146/23/77
f 85/32/78 152/17/78 153/9/78 87/88/78
f 87/88/79 153/9/79 151/12/79 86/31/79
f 112/99/80 155/84/80 156/1/80 114/100/80
f 114/100/81 156/1/81 154/4/81 113/70/81
f 197/81/82 159/80/82 157/29/82 194/82/82
f 185/18/83 152/17/83 161/34/83 164/116/83
f 160/71/84 154/4/84 173/3/84 167/78/84
f 163/117/85 169/118/85 166/119/85 172/120/85 178/121/85 175/122/85 190/123/85 196/124/85 193/125/85 181/126/85 187/127/85 184/128/85
f 184/129/86 187/130/86 189/131/86 186/132/86
f 186/132/87 189/131/87 188/10/87 185/18/87
f 187/130/88 181/133/88 183/134/88 189/131/88
f 189/131/89 183/134/89 182/11/89 188/10/89
f 175/135/90 178/136/90 180/137/90 177/138/90
f 177/138/91 180/137/91 179/2/91 176/85/91
f 178/136/92 172/139/92 174/140/92 180/137/92
f 180/137/93 174/140/93 173/3/93 179/2/93
f 196/141/94 190/142/94 192/143/94 198/144/94
f 198/144/95 192/143/95 191/79/95 197/81/95
f 193/145/96 196/141/96 198/144/96 195/146/96
f 195/146/97 198/144/97 197/81/97 194/82/97
f 169/147/98 163/148/98 165/149/98 171/150/98
f 171/150/99 165/149/99 164/116/99 170/76/99
f 166/151/100 169/147/100 171/150/100 168/152/100
f 168/152/101 171/150/101 170/76/101 167/78/101
f 163/148/102 184/129/102 186/132/102 165/149/102
f 165/149/103 186/132/103 185/18/103 164/116/103
f 167/78/104 173/3/104 174/140/104 168/152/104
f 168/152/105 174/140/105 172/139/105 166/151/105
f 176/83/106 191/79/106 192/143/106 177/153/106
f 177/153/107 192/143/107 190/142/107 175/154/107
f 194/82/108 182/11/108 183/134/108 195/146/108
f 195/146/109 183/134/109 181/133/109 193/145/109
f 164/116/110 161/34/110 162/77/110 170/76/110
s 1
f 11/155/111 9/156/112 7/157/113 21/158/114
f 1/159/115 12/160/116 14/161/116 2/162/117
f 68/163/118 32/164/119 38/165/120 66/166/121
f 77/167/122 1/168/115 6/169/123 76/170/124
f 24/171/125 41/172/126 8/173/127 7/174/113 9/175/112 10/176/128 45/177/129 26/178/130
f 33/179/131 56/180/132 62/181/133 59/182/134 47/183/135 53/184/136 50/185/137 29/186/138
f 77/187/122 78/188/116 12/160/116 1/159/115
f 68/189/118 69/190/116 57/191/139 32/192/119
f 74/193/140 75/194/141 42/195/142 23/196/143
f 65/197/144 67/198/141 18/199/141 4/200/145
f 1/168/115 2/201/117 5/202/146 6/169/123
f 65/203/144 4/204/145 5/205/147 66/206/148
f 4/200/145 18/199/141 20/207/141 3/208/149
f 33/209/131 29/210/138 39/211/150
f 4/204/145 3/212/149 6/213/151 5/205/147
f 22/214/152 8/215/127 41/216/126 43/217/153 42/195/142 75/194/141 20/207/141
f 71/218/152 19/219/152 18/199/141 67/198/141
f 15/220/111 11/155/111 21/158/114 17/221/114
f 72/222/111 60/223/154 63/224/155 73/225/156
f 21/226/114 7/227/113 8/215/127 22/214/152
f 10/228/128 13/229/156 12/160/116 78/188/116 44/230/157 46/231/158 45/232/129
f 9/233/112 11/234/111 13/229/156 10/228/128
f 70/235/114 17/236/114 19/219/152 71/218/152
f 11/234/111 15/237/111 16/238/156 13/229/156
f 13/229/156 16/238/156 14/161/116 12/160/116
f 72/239/111 15/220/111 17/221/114 70/240/114
f 73/225/156 63/224/155 57/191/139 69/190/116
f 17/236/114 21/226/114 22/214/152 19/219/152
f 19/219/152 22/214/152 20/207/141 18/199/141
f 74/241/140 23/242/143 36/243/159 76/244/160
f 39/245/150 29/246/138 31/247/161 40/248/162
f 40/248/162 31/247/161 30/249/163 38/250/164
f 33/251/131 39/252/150 40/253/162 34/254/165
f 34/254/165 40/253/162 38/165/120 32/164/119
f 35/255/166 26/256/130 28/257/167 37/258/168
f 37/258/168 28/257/167 27/259/169 36/260/170
f 24/261/125 35/262/166 37/263/168 25/264/171
f 25/264/171 37/263/168 36/243/159 23/242/143
f 59/265/134 62/266/133 64/267/172 61/268/173
f 61/268/173 64/267/172 63/224/155 60/223/154
f 62/266/133 56/269/132 58/270/174 64/267/172
f 64/267/172 58/270/174 57/191/139 63/224/155
f 53/271/136 47/272/135 49/273/175 55/274/176
f 55/274/176 49/273/175 48/275/177 54/276/178
f 50/277/137 53/271/136 55/274/176 52/278/179
f 52/278/179 55/274/176 54/276/178 51/279/180
f 41/216/126 24/280/125 25/281/171 43/217/153
f 43/217/153 25/281/171 23/196/143 42/195/142
f 44/230/157 27/282/169 28/283/167 46/231/158
f 46/231/158 28/283/167 26/284/130 45/232/129
f 47/285/135 59/286/134 61/287/173 49/288/175
f 49/288/175 61/287/173 60/289/154 48/290/177
f 32/192/119 57/191/139 58/270/174 34/291/165
f 34/291/165 58/270/174 56/269/132 33/292/131
f 51/279/180 30/293/163 31/294/161 52/278/179
f 52/278/179 31/294/161 29/295/138 50/277/137
f 24/296/125 26/297/130 35/298/166
f 16/238/156 73/225/156 69/190/116 14/161/116
f 60/289/154 72/239/111 70/240/114 48/290/177
f 48/275/177 70/235/114 71/218/152 54/276/178
f 15/237/111 72/222/111 73/225/156 16/238/156
f 54/276/178 71/218/152 67/198/141 51/279/180
f 30/249/163 65/203/144 66/206/148 38/250/164
f 30/293/163 51/279/180 67/198/141 65/197/144
f 2/162/117 14/161/116 69/190/116 68/189/118
f 2/201/117 68/163/118 66/166/121 5/202/146
f 3/212/149 74/241/140 76/244/160 6/213/151
f 3/208/149 20/207/141 75/194/141 74/193/140
f 27/282/169 44/230/157 78/188/116 77/187/122
f 27/259/169 77/167/122 76/170/124 36/260/170
