# Blender v2.90.1 OBJ File: 'Hammer.blend'
# www.blender.org
mtllib Hammer.mtl
o Hammer.001_Cube.001
v 0.005339 0.029529 0.014120
v -0.006351 0.029529 0.013204
v -0.011198 0.029529 -0.014049
v -0.008217 0.029529 -0.015257
v -0.001359 0.029529 -0.016619
v 0.015177 0.029529 -0.014049
v 0.015177 0.029529 0.011550
v 0.005339 0.428199 0.014120
v -0.006351 0.428199 0.013204
v -0.011198 0.428199 -0.014049
v -0.008217 0.428199 -0.015257
v -0.001359 0.428199 -0.016619
v 0.015177 0.428199 -0.014049
v 0.015177 0.428199 0.011550
v -0.015795 0.029529 0.008061
v -0.019197 0.029529 0.004230
v -0.020350 0.029529 0.001282
v -0.020350 0.029529 -0.003781
v -0.019197 0.029529 -0.006729
v -0.015953 0.029529 -0.010791
v 0.019932 0.029529 -0.010791
v 0.023177 0.029529 -0.006729
v 0.024330 0.029529 -0.003781
v 0.024330 0.029529 0.001282
v 0.023177 0.029529 0.004230
v 0.019932 0.029529 0.008292
v 0.004729 0.011461 0.004649
v 0.005340 0.013946 0.008288
v -0.002105 0.013982 0.008165
v -0.000792 0.011462 0.004642
v -0.008393 0.014044 0.005051
v -0.011795 0.013880 0.001302
v -0.007550 0.011457 0.001393
v -0.011803 0.013880 0.001283
v -0.011803 0.013880 -0.003782
v -0.008583 0.011475 -0.001249
v -0.011795 0.013880 -0.003801
v -0.008529 0.013974 -0.007803
v -0.007487 0.011437 -0.004052
v -0.003862 0.011430 -0.006327
v -0.005880 0.013932 -0.009510
v -0.003933 0.013908 -0.010190
v -0.002494 0.011414 -0.006788
v -0.001361 0.013946 -0.010787
v -0.001222 0.011389 -0.007102
v 0.010937 0.013998 -0.009015
v 0.009244 0.011453 -0.005615
v 0.012584 0.013997 -0.007886
v 0.015775 0.013880 -0.003801
v 0.011445 0.011475 -0.004107
v 0.015782 0.013880 -0.003782
v 0.015782 0.013880 0.001283
v 0.012563 0.011475 -0.001249
v 0.015775 0.013880 0.001302
v 0.012314 0.013955 0.005038
v 0.011530 0.011457 0.001391
v -0.019197 0.428199 0.004230
v -0.015797 0.428199 0.008060
v -0.020351 0.428199 -0.003780
v -0.020351 0.428199 0.001282
v -0.015954 0.428199 -0.010790
v -0.019197 0.428199 -0.006729
v 0.023177 0.428199 -0.006729
v 0.019934 0.428199 -0.010790
v 0.024330 0.428199 0.001282
v 0.024330 0.428199 -0.003780
v 0.019934 0.428199 0.008291
v 0.023177 0.428199 0.004230
v -0.033631 0.415034 -0.024435
v -0.037609 0.416326 -0.025578
v -0.033631 0.470402 -0.024435
v -0.037609 0.469110 -0.025578
v -0.033304 0.415034 0.024323
v -0.037267 0.416325 0.025462
v -0.033304 0.470402 0.024323
v -0.037267 0.469111 0.025462
v -0.102839 0.456519 -0.025483
v -0.106326 0.457143 -0.024358
v -0.119822 0.434582 -0.025462
v -0.121125 0.433229 -0.024358
v -0.123792 0.435319 -0.024358
v -0.119822 0.450855 -0.025462
v -0.123792 0.450117 -0.024358
v -0.121125 0.452207 -0.024358
v -0.102858 0.456513 0.025462
v -0.106326 0.457143 0.024358
v -0.119822 0.450855 0.025462
v -0.121125 0.452207 0.024358
v -0.123792 0.450117 0.024358
v -0.119822 0.434582 0.025462
v -0.123792 0.435319 0.024358
v -0.121125 0.433229 0.024358
v 0.082799 0.418817 -0.020480
v 0.082799 0.420451 -0.021983
v 0.070286 0.415034 -0.024322
v 0.070286 0.416322 -0.025462
v 0.082799 0.464985 -0.021983
v 0.082799 0.466619 -0.020480
v 0.070286 0.469114 -0.025462
v 0.070286 0.470402 -0.024322
v 0.082799 0.420451 0.021983
v 0.082799 0.418817 0.020480
v 0.070286 0.416322 0.025462
v 0.070286 0.415034 0.024322
v 0.070286 0.470402 0.024322
v 0.070286 0.469115 0.025462
v 0.082799 0.466619 0.020480
v 0.082799 0.464985 0.021983
vt 0.063781 0.839871
vt 0.053409 0.835225
vt 0.478064 0.023760
vt 0.492599 0.031468
vt 0.091405 0.854204
vt 0.077556 0.846425
vt 0.507091 0.039042
vt 0.521555 0.046679
vt 0.112646 0.867395
vt 0.086808 0.904803
vt 0.066150 0.895021
vt 0.133035 0.952365
vt 0.133098 0.949838
vt 0.146072 0.947802
vt 0.145753 0.951569
vt 0.142951 0.972095
vt 0.143445 0.968251
vt 0.349482 0.981630
vt 0.349231 0.985334
vt 0.159559 0.897752
vt 0.137079 0.882898
vt 0.567312 0.070686
vt 0.589884 0.082594
vt 0.145393 0.954279
vt 0.132830 0.953948
vt 0.072065 0.592028
vt 0.068283 0.599672
vt 0.059741 0.604495
vt 0.050919 0.602414
vt 0.037551 0.582357
vt 0.035091 0.564882
vt 0.042332 0.542035
vt 0.050231 0.537574
vt 0.059592 0.539783
vt 0.068423 0.550233
vt 0.070500 0.554355
vt 0.072065 0.558238
vt 0.146268 0.944153
vt 0.146362 0.941337
vt 0.351249 0.954425
vt 0.351000 0.958114
vt 0.132645 0.955959
vt 0.144691 0.958311
vt 0.131325 0.965530
vt 0.350774 0.961779
vt 0.350534 0.965445
vt 0.350040 0.972740
vt 0.542831 0.057829
vt 0.145477 0.934424
vt 0.145926 0.937507
vt 0.130965 0.940904
vt 0.130854 0.940650
vt 0.130953 0.967098
vt 0.132976 0.945474
vt 0.132958 0.945366
vt 0.120705 0.928926
vt 0.105050 0.915991
vt 0.142341 0.975820
vt 0.141853 0.978660
vt 0.129646 0.971523
vt 0.129696 0.971413
vt 0.051342 0.889008
vt 0.050950 0.888934
vt 0.348993 0.989008
vt 0.348727 0.992679
vt 0.350280 0.969084
vt 0.115037 0.941810
vt 0.127945 0.945085
vt 0.128957 0.948367
vt 0.126463 0.967254
vt 0.033189 0.890049
vt 0.043547 0.905663
vt 0.055306 0.906473
vt 0.129009 0.954001
vt 0.129076 0.952665
vt 0.095624 0.926910
vt 0.079799 0.917088
vt 0.118763 0.950227
vt 0.128887 0.955181
vt 0.127271 0.964664
vt 0.124219 0.970218
vt 0.172446 0.906758
vt 0.037235 0.831071
vt 0.351470 0.950734
vt 0.604155 0.090096
vt 0.463470 0.016164
vt 0.351709 0.947135
vt 0.935660 0.551006
vt 0.837760 0.550085
vt 0.842548 0.357359
vt 0.930220 0.358280
vt 0.864569 0.243765
vt 0.874880 0.212886
vt 0.905293 0.213368
vt 0.642072 0.348810
vt 0.665880 0.204692
vt 0.696396 0.204053
vt 0.706891 0.235041
vt 0.729628 0.348691
vt 0.736410 0.541421
vt 0.638439 0.542274
vt 0.837574 0.638861
vt 0.923961 0.638883
vt 0.923917 0.822851
vt 0.837327 0.823410
vt 0.968462 0.172247
vt 0.848470 0.172247
vt 0.848470 0.135797
vt 0.968462 0.135797
vt 0.977530 0.029980
vt 0.980199 0.032882
vt 0.980199 0.111972
vt 0.977530 0.114874
vt 0.904788 0.114874
vt 0.902120 0.111972
vt 0.902120 0.032882
vt 0.904788 0.029980
vt 0.718903 0.640892
vt 0.632387 0.640904
vt 0.632383 0.613198
vt 0.718900 0.613186
vt 0.718903 0.956662
vt 0.632517 0.956683
vt 0.632269 0.772134
vt 0.718860 0.772694
vt 0.736546 0.119075
vt 0.758608 0.123022
vt 0.750157 0.131061
vt 0.938872 0.551239
vt 0.934068 0.576402
vt 0.929809 0.575626
vt 0.923961 0.982127
vt 0.837445 0.982118
vt 0.797926 0.117713
vt 0.784623 0.129429
vt 0.776362 0.121571
vt 0.699439 0.201449
vt 0.708662 0.228600
vt 0.862784 0.237405
vt 0.871835 0.210307
vt 0.736546 0.039840
vt 0.750157 0.027853
vt 0.758608 0.035893
vt 0.635218 0.542528
vt 0.638395 0.356526
vt 0.644362 0.566948
vt 0.640097 0.567736
vt 0.933962 0.365978
vt 0.843496 0.575668
vt 0.839078 0.576402
vt 0.834486 0.550310
vt 0.848470 0.127454
vt 0.968462 0.127454
vt 0.797926 0.040267
vt 0.776362 0.036409
vt 0.968462 0.180590
vt 0.848470 0.180590
vt 0.662771 0.202429
vt 0.838997 0.364389
vt 0.733255 0.355744
vt 0.739686 0.541627
vt 0.735159 0.567736
vt 0.730739 0.567013
vt 0.917144 0.615665
vt 0.844403 0.615647
vt 0.712086 0.979880
vt 0.639345 0.979898
vt 0.784623 0.028551
vt 0.908392 0.211081
vn 0.8404 -0.2280 0.4916
vn 0.9553 -0.2376 0.1758
vn 0.9827 -0.0000 0.1853
vn 0.8661 -0.0000 0.4998
vn 0.3958 -0.1867 0.8992
vn 0.6331 -0.2132 0.7441
vn 0.6807 -0.0000 0.7325
vn 0.4151 0.0000 0.9098
vn 0.1220 -0.1833 0.9755
vn 0.1660 -0.3701 0.9141
vn 0.4364 -0.6205 0.6516
vn -0.4163 -0.3826 -0.8248
vn -0.5080 -0.6251 -0.5926
vn -0.6680 -0.2125 -0.7131
vn -0.4633 -0.1938 -0.8648
vn 0.6712 -0.2109 -0.7106
vn 0.3682 -0.1867 -0.9108
vn 0.3685 0.0000 -0.9296
vn 0.6807 -0.0000 -0.7325
vn -0.6124 -0.2068 0.7630
vn -0.2807 -0.1811 0.9426
vn -0.2845 0.0000 0.9587
vn -0.6222 -0.0000 0.7828
vn -0.2831 -0.1815 -0.9418
vn -0.2553 -0.3582 -0.8981
vn 0.0005 -1.0000 0.0033
vn -0.8439 -0.2268 -0.4862
vn -0.9553 -0.2376 -0.1758
vn -0.9827 -0.0000 -0.1853
vn -0.8661 -0.0000 -0.4998
vn -0.0272 -0.3500 -0.9364
vn -0.0228 -0.1744 -0.9844
vn 0.3234 -0.3725 -0.8699
vn -0.6807 -0.0000 -0.7325
vn -0.4732 0.0000 -0.8810
vn -0.0209 0.0000 -0.9998
vn 0.0885 0.0000 0.9961
vn -0.8313 -0.2253 0.5081
vn -0.9553 -0.2376 0.1758
vn -0.7334 -0.6622 0.1536
vn -0.6487 -0.6501 0.3958
vn 0.5165 -0.6256 -0.5846
vn -0.6586 -0.6533 -0.3735
vn -0.7341 -0.6618 -0.1522
vn -0.4587 -0.6118 0.6444
vn -0.2259 -0.3603 0.9051
vn 0.8450 -0.2264 -0.4845
vn 0.9553 -0.2376 -0.1758
vn 0.7327 -0.6627 -0.1551
vn 0.6574 -0.6555 -0.3718
vn 0.6520 -0.6512 0.3884
vn 0.7334 -0.6622 0.1536
vn 0.8661 -0.0000 -0.4998
vn 0.9827 -0.0000 -0.1853
vn -0.2865 0.0000 -0.9581
vn -0.3966 -0.8311 0.3899
vn -0.5305 -0.8477 0.0014
vn -0.4218 -0.8329 -0.3583
vn 0.4245 -0.8338 -0.3529
vn 0.5287 -0.8488 -0.0015
vn 0.3950 -0.8321 0.3895
vn -0.2521 -0.8303 -0.4970
vn -0.1626 -0.8250 -0.5413
vn -0.1585 -0.8245 -0.5431
vn -0.2448 -0.8302 -0.5009
vn 0.1155 -0.8277 0.5491
vn -0.1401 -0.8280 0.5429
vn -0.1235 -0.8279 0.5471
vn 0.1222 -0.8278 0.5476
vn -0.0211 -0.8239 -0.5664
vn -0.0222 -0.8239 -0.5663
vn 0.2106 -0.8304 -0.5158
vn 0.1989 -0.8299 -0.5213
vn -0.9827 -0.0000 0.1853
vn -0.8528 -0.0000 0.5223
vn 0.1205 0.0000 0.9927
vn 0.0000 0.0000 1.0000
vn -0.1694 0.2336 0.9575
vn -0.1724 -0.3248 0.9299
vn -0.0001 0.0000 -1.0000
vn -0.1735 -0.3255 -0.9295
vn -0.1704 0.2347 -0.9570
vn -0.0014 0.0000 -1.0000
vn 0.1211 0.0000 -0.9926
vn 0.1316 -0.9913 0.0000
vn -0.1017 -0.9948 0.0003
vn -0.1026 -0.9947 0.0003
vn -1.0000 0.0000 0.0000
vn 1.0000 0.0000 0.0000
vn -0.2484 0.9687 0.0003
vn -0.2483 0.9687 0.0003
vn -0.4735 0.8808 0.0000
vn 0.1316 0.9913 0.0000
vn -0.0903 0.9959 0.0003
vn -0.0895 0.9960 0.0003
vn -0.2832 0.0967 0.9542
vn -0.2559 0.4512 0.8550
vn 0.2049 -0.6523 0.7297
vn 0.1999 -0.6529 0.7306
vn 0.3943 -0.6165 0.6815
vn -0.4211 -0.9070 0.0003
vn -0.2832 0.0967 -0.9542
vn -0.2565 0.4525 -0.8541
vn -0.1710 0.5632 -0.8084
vn -0.1517 0.7325 -0.6636
vn -0.1494 0.7282 0.6688
vn -0.1693 0.5600 0.8110
vn -0.2832 -0.0967 0.9542
vn -0.2559 -0.5402 0.8017
vn 0.2003 -0.6527 -0.7306
vn -0.0143 -0.6693 -0.7429
vn -0.1374 -0.7202 -0.6800
vn 0.2052 -0.6522 -0.7298
vn 0.3943 -0.6165 -0.6816
vn -0.0148 -0.6692 0.7429
vn -0.1358 -0.7186 0.6821
vn 0.3943 0.6165 0.6815
vn 0.1999 0.6529 0.7306
vn 0.2049 0.6523 0.7297
vn -0.6168 -0.7871 0.0000
vn -0.2832 -0.0967 -0.9542
vn -0.6168 0.7871 0.0000
vn -0.2567 -0.5410 -0.8009
vn -0.1253 0.7557 0.6428
vn -0.0141 0.6739 0.7387
vn -0.0136 0.6743 -0.7383
vn -0.1273 0.7596 -0.6378
vn 0.2003 0.6528 -0.7306
vn 0.3943 0.6165 -0.6815
vn 0.2052 0.6522 -0.7298
vn 0.2679 0.0000 -0.9635
vn 0.2894 -0.9572 0.0000
vn 0.2894 0.9572 0.0000
vn 0.2679 0.0000 0.9635
usemtl None
s 1
f 25/1/1 24/2/2 65/3/3 68/4/4
f 7/5/5 26/6/6 67/7/7 14/8/8
f 7/5/5 1/9/9 28/10/10 55/11/11 26/6/6
f 41/12/12 38/13/13 20/14/14 3/15/15
f 21/16/16 6/17/17 13/18/18 64/19/19
f 15/20/20 2/21/21 9/22/22 58/23/23
f 41/12/12 3/15/15 4/24/24 42/25/25
f 47/26/26 50/27/26 53/28/26 56/29/26 27/30/26 30/31/26 33/32/26 36/33/26 39/34/26 40/35/26 43/36/26 45/37/26
f 19/38/27 18/39/28 59/40/29 62/41/30
f 44/42/31 5/43/32 6/17/17 46/44/33
f 3/15/15 20/14/14 61/45/34 10/46/35
f 42/25/25 4/24/24 5/43/32 44/42/31
f 6/17/17 5/43/32 12/47/36 13/18/18
f 2/21/21 1/9/9 8/48/37 9/22/22
f 16/49/38 17/50/39 34/51/40 32/52/41
f 6/17/17 21/16/16 48/53/42 46/44/33
f 1/9/9 7/5/5 14/8/8 8/48/37
f 18/39/28 19/38/27 37/54/43 35/55/44
f 2/21/21 15/20/20 31/56/45 29/57/46
f 22/58/47 23/59/48 51/60/49 49/61/50
f 24/2/2 25/1/1 54/62/51 52/63/52
f 28/10/10 1/9/9 2/21/21 29/57/46
f 23/59/48 22/58/47 63/64/53 66/65/54
f 4/24/24 3/15/15 10/46/35 11/66/55
f 5/43/32 4/24/24 11/66/55 12/47/36
f 31/56/45 32/52/41 33/67/56
f 34/51/40 35/55/44 36/68/57
f 37/54/43 38/13/13 39/69/58
f 48/53/42 49/61/50 50/70/59
f 51/71/49 52/63/52 53/72/60
f 54/62/51 55/11/11 56/73/61
f 41/12/62 42/25/63 43/74/64 40/75/65
f 28/10/66 29/57/67 30/76/68 27/77/69
f 29/57/67 31/56/45 33/67/56 30/76/68
f 32/52/41 34/51/40 36/78/57 33/67/56
f 35/55/44 37/54/43 39/69/58 36/68/57
f 38/13/13 41/12/62 40/75/65 39/69/58
f 42/25/63 44/42/70 45/79/71 43/74/64
f 44/42/70 46/44/72 47/80/73 45/79/71
f 46/44/72 48/53/42 50/70/59 47/80/73
f 49/61/50 51/60/49 53/81/60 50/70/59
f 52/63/52 54/62/51 56/73/61 53/72/60
f 55/11/11 28/10/66 27/77/69 56/73/61
f 16/82/38 32/52/41 31/56/45 15/20/20
f 37/54/43 19/38/27 20/14/14 38/13/13
f 22/58/47 49/61/50 48/53/42 21/16/16
f 54/62/51 25/1/1 26/6/6 55/11/11
f 18/39/28 35/55/44 34/51/40 17/50/39
f 24/2/2 52/63/52 51/71/49 23/83/48
f 59/40/29 18/39/28 17/50/39 60/84/74
f 15/20/20 58/23/23 57/85/75 16/82/38
f 63/64/53 22/58/47 21/16/16 64/19/19
f 61/45/34 20/14/14 19/38/27 62/41/30
f 65/3/3 24/2/2 23/83/48 66/86/54
f 67/7/7 26/6/6 25/1/1 68/4/4
f 17/50/39 16/49/38 57/87/75 60/84/74
f 103/88/76 106/89/76 76/90/77 74/91/77
f 74/91/77 76/90/77 85/92/77 87/93/78 90/94/79
f 70/95/80 79/96/81 82/97/82 77/98/83 72/99/80
f 70/95/80 72/99/80 99/100/84 96/101/84
f 95/102/85 104/103/85 73/104/86 69/105/87
f 89/106/88 83/107/88 81/108/88 91/109/88
f 93/110/89 94/111/89 97/112/89 98/113/89 107/114/89 108/115/89 101/116/89 102/117/89
f 86/118/90 78/119/91 84/120/92 88/121/92
f 105/122/93 100/123/93 71/124/94 75/125/95
f 89/126/96 87/127/78 88/128/97
f 103/88/98 104/129/99 102/130/100 101/131/100
f 69/105/87 73/104/86 92/132/101 80/133/101
f 83/134/102 84/135/103 82/136/82
f 84/137/103 78/138/104 77/98/105 82/97/82
f 75/125/95 71/124/94 78/119/91 86/118/90
f 85/92/106 86/139/107 88/140/97 87/93/78
f 91/141/108 92/142/109 90/143/79
f 95/144/110 69/145/111 70/95/112 96/101/113
f 94/146/114 93/147/114 95/144/110 96/101/113
f 73/148/115 104/129/99 103/88/98 74/91/116
f 108/149/117 107/150/117 105/151/118 106/89/119
f 89/126/96 91/141/108 90/143/79 87/127/78
f 91/109/120 81/108/120 80/152/101 92/153/101
f 81/154/121 83/134/102 82/136/82 79/155/81
f 83/107/122 89/106/122 88/156/92 84/157/92
f 80/158/123 79/96/81 70/95/112 69/145/111
f 85/92/106 76/90/124 75/159/125 86/139/107
f 77/98/105 78/138/104 71/160/126 72/99/127
f 100/161/128 98/162/129 97/163/129 99/100/130
f 99/100/84 97/163/131 94/146/131 96/101/84
f 102/164/132 104/103/85 95/102/85 93/165/132
f 71/160/126 100/161/128 99/100/130 72/99/127
f 100/123/93 105/122/93 107/166/133 98/167/133
f 108/149/134 106/89/76 103/88/76 101/131/134
f 106/89/119 105/151/118 75/159/125 76/90/124
f 81/154/121 79/155/81 80/168/123
f 73/148/115 74/91/116 90/94/79 92/169/109
