# Blender v2.90.1 OBJ File: 'Scythe.blend'
# www.blender.org
mtllib Scythe.mtl
o Scythe_Circle.001
v -0.028199 1.883893 -0.011209
v -0.027369 1.924548 -0.011469
v 0.006115 1.883893 -0.011476
v 0.006115 1.924548 -0.011476
v 0.020052 1.924548 0.001719
v 0.020052 1.883893 0.001719
v -0.041128 1.883893 0.037041
v -0.041128 1.924548 0.037041
v -0.045860 1.924548 0.019380
v -0.045860 1.883893 0.019380
v -0.041873 1.883893 0.019380
v -0.041873 1.924548 0.019380
v -0.037675 1.924548 0.035048
v -0.037675 1.883893 0.035048
v 0.016599 1.883893 0.003713
v 0.016599 1.924548 0.003713
v 0.006138 1.924548 -0.007490
v 0.006138 1.883893 -0.007490
v -0.027035 1.924548 -0.007497
v -0.026206 1.883893 -0.007757
v 0.005130 1.883893 0.046518
v 0.005130 1.924548 0.046518
v 0.016599 1.924548 0.035048
v 0.016599 1.883893 0.035048
v -0.026206 1.924548 0.046518
v -0.026206 1.883893 0.046518
v -0.037675 1.924548 0.003713
v -0.037675 1.883893 0.003713
v 0.020798 1.924548 0.019380
v 0.020798 1.883893 0.019380
v -0.010538 1.924548 0.050716
v -0.010538 1.883893 0.050716
v 0.007123 1.883893 0.049970
v 0.007123 1.924548 0.049970
v 0.020052 1.924548 0.037041
v 0.020052 1.883893 0.037041
v -0.028199 1.924548 0.049970
v -0.028199 1.883893 0.049970
v -0.041128 1.924548 0.001719
v -0.041128 1.883893 0.001719
v 0.024784 1.924548 0.019380
v 0.024784 1.883893 0.019380
v -0.010538 1.924548 0.054702
v -0.010538 1.883893 0.054702
v -0.959183 1.801126 -0.008889
v -0.086449 1.891515 -0.008889
v -0.080904 1.966592 -0.008889
v -0.525891 1.919284 -0.008889
v -0.539865 1.967296 -0.008889
v -0.302947 1.914879 -0.008889
v -0.757059 1.934422 -0.008889
v -0.754149 1.883461 -0.008889
v -0.305944 1.976214 -0.008889
v -0.192383 1.904093 -0.008889
v -0.877631 1.882709 -0.008889
v -0.632782 1.906860 -0.008889
v -0.415473 1.976367 -0.008889
v -0.414807 1.919648 -0.008889
v -0.640584 1.954752 -0.008889
v -0.854429 1.855656 -0.008889
v -0.198227 1.969999 -0.008889
v -0.822987 1.916310 -0.008889
v -0.804452 1.874460 -0.008889
v -0.034581 1.937209 -0.008889
v -0.034727 1.991760 -0.008889
v 0.014860 1.936685 -0.008889
v 0.014715 1.991236 -0.008889
v -0.959183 1.801126 -0.013298
v -0.086449 1.891515 -0.013297
v -0.080904 1.966592 -0.013297
v -0.525891 1.919284 -0.013298
v -0.539865 1.967296 -0.013298
v -0.302947 1.914879 -0.013298
v -0.757059 1.934422 -0.013297
v -0.754149 1.883461 -0.013297
v -0.305944 1.976214 -0.013298
v -0.192383 1.904093 -0.013298
v -0.877631 1.882709 -0.013298
v -0.632782 1.906860 -0.013297
v -0.415473 1.976367 -0.013298
v -0.414807 1.919648 -0.013297
v -0.640584 1.954752 -0.013298
v -0.854429 1.855656 -0.013298
v -0.198227 1.969999 -0.013298
v -0.822987 1.916310 -0.013298
v -0.804452 1.874460 -0.013298
v -0.034727 1.991760 -0.013901
v -0.034581 1.937209 -0.013901
v 0.014860 1.936685 -0.013298
v 0.014715 1.991236 -0.013298
v -0.009899 0.056817 -0.009335
v -0.025039 0.056817 -0.005279
v -0.036122 0.056817 0.005804
v -0.040178 0.056817 0.020944
v -0.036122 0.056817 0.036083
v -0.025039 0.056817 0.047166
v -0.009899 0.056817 0.051223
v 0.005240 0.056817 0.047166
v 0.016323 0.056817 0.036083
v 0.020380 0.056817 0.020944
v 0.016323 0.056817 0.005804
v 0.005240 0.056817 -0.005279
v -0.009899 1.950621 -0.009335
v -0.025039 1.950621 -0.005279
v -0.036122 1.950621 0.005804
v -0.040178 1.950621 0.020944
v -0.036122 1.950621 0.036083
v -0.025039 1.950621 0.047166
v -0.009899 1.950621 0.051223
v 0.005240 1.950621 0.047166
v 0.016323 1.950621 0.036083
v 0.020380 1.950621 0.020944
v 0.016323 1.950621 0.005804
v 0.005240 1.950621 -0.005279
v -0.009899 0.016298 0.002213
v -0.019264 0.016298 0.004723
v -0.026120 0.016298 0.011579
v -0.028629 0.016298 0.020944
v -0.026120 0.016298 0.030309
v -0.019264 0.016298 0.037165
v -0.009899 0.016298 0.039674
v -0.000534 0.016298 0.037165
v 0.006322 0.016298 0.030309
v 0.008831 0.016298 0.020944
v 0.006322 0.016298 0.011579
v -0.000534 0.016298 0.004723
v -0.009899 1.975573 0.001889
v -0.019427 1.975573 0.004442
v -0.026401 1.975573 0.011416
v -0.028954 1.975573 0.020944
v -0.026401 1.975573 0.030471
v -0.019427 1.975573 0.037446
v -0.009899 1.975573 0.039999
v -0.000372 1.975573 0.037446
v 0.006603 1.975573 0.030471
v 0.009156 1.975573 0.020944
v 0.006603 1.975573 0.011416
v -0.000372 1.975573 0.004442
v -0.025039 0.838675 0.047166
v -0.025039 0.810990 0.047166
v -0.036122 0.810990 0.036083
v -0.036122 0.838675 0.036083
v -0.036122 0.838675 0.005804
v -0.036122 0.810990 0.005804
v -0.025039 0.810990 -0.005279
v -0.025039 0.838675 -0.005279
v -0.036122 0.810990 0.036083
v -0.036122 0.838675 0.036083
v -0.025039 0.810990 -0.005279
v -0.025039 0.838675 -0.005279
v -0.036122 0.838675 0.005804
v -0.036122 0.810990 0.005804
v -0.025039 0.838675 0.047166
v -0.025039 0.810990 0.047166
v -0.168355 0.813869 0.045682
v -0.168355 0.835796 0.045682
v -0.159578 0.813869 -0.021904
v -0.159578 0.835796 -0.021904
v -0.168355 0.835796 -0.003794
v -0.168355 0.813869 -0.003794
v -0.159578 0.835796 0.063791
v -0.159578 0.813869 0.063791
vt 0.390554 0.939253
vt 0.367982 0.953333
vt 0.357626 0.916061
vt 0.364068 0.912919
vt 0.055174 0.981509
vt 0.038666 0.970686
vt 0.042181 0.967464
vt 0.056512 0.977019
vt 0.359784 0.890684
vt 0.347506 0.893011
vt 0.346455 0.891766
vt 0.359552 0.889044
vt 0.090449 0.972230
vt 0.074489 0.982049
vt 0.073248 0.977650
vt 0.087161 0.969406
vt 0.367288 0.900295
vt 0.364685 0.894426
vt 0.365962 0.893388
vt 0.368892 0.900038
vt 0.363076 0.911735
vt 0.366667 0.906625
vt 0.368169 0.907183
vt 0.350934 0.913842
vt 0.357333 0.914401
vt 0.350368 0.915375
vt 0.343271 0.904411
vt 0.345789 0.910165
vt 0.344533 0.911185
vt 0.341678 0.904645
vt 0.344038 0.898170
vt 0.342541 0.897609
vt 0.097405 0.956433
vt 0.094014 0.954939
vt 0.391632 0.871195
vt 0.402893 0.892164
vt 0.298273 0.914948
vt 0.297631 0.882307
vt 0.340214 0.954431
vt 0.402893 0.916836
vt 0.320459 0.856508
vt 0.314488 0.940925
vt 0.371284 0.857706
vt 0.040703 0.915542
vt 0.056650 0.905707
vt 0.058243 0.909398
vt 0.044084 0.918647
vt 0.103106 0.941878
vt 0.101572 0.937571
vt 0.029694 0.952750
vt 0.030549 0.932607
vt 0.035162 0.933866
vt 0.034383 0.951661
vt 0.237902 0.759436
vt 0.174621 0.760371
vt 0.158093 0.658498
vt 0.216744 0.655305
vt 0.147155 0.554304
vt 0.201185 0.549348
vt 0.202176 0.222921
vt 0.153403 0.225174
vt 0.164138 0.160664
vt 0.190724 0.105363
vt 0.218749 0.124772
vt 0.205783 0.174174
vt 0.191873 0.340700
vt 0.145538 0.337996
vt 0.260308 0.019732
vt 0.143527 0.435059
vt 0.190585 0.443623
vt 0.260308 0.858986
vt 0.189423 0.871660
vt 0.221944 0.912838
vt 0.170028 0.918075
vt 0.227314 0.959826
vt 0.175398 0.965063
vt 0.060586 0.730314
vt 0.062456 0.622599
vt 0.120859 0.616684
vt 0.121883 0.720897
vt 0.063042 0.514042
vt 0.117273 0.512362
vt 0.044946 0.182735
vt 0.041241 0.134043
vt 0.033792 0.085846
vt 0.065512 0.069707
vt 0.083315 0.124296
vt 0.092363 0.185470
vt 0.055444 0.300782
vt 0.102316 0.296550
vt 0.032492 0.020611
vt 0.062145 0.405656
vt 0.109132 0.393427
vt 0.058055 0.824053
vt 0.128008 0.837693
vt 0.076294 0.888697
vt 0.054004 0.824738
vt 0.082011 0.888267
vt 0.056203 0.730218
vt 0.057860 0.405809
vt 0.051228 0.301103
vt 0.113357 0.393133
vt 0.121493 0.512143
vt 0.058188 0.622547
vt 0.058775 0.514048
vt 0.096510 0.184973
vt 0.106524 0.296213
vt 0.040770 0.183075
vt 0.037137 0.134471
vt 0.125112 0.616588
vt 0.126216 0.720763
vt 0.069234 0.067818
vt 0.087282 0.123349
vt 0.030701 0.086151
vt 0.029694 0.012827
vt 0.132252 0.836944
vt 0.115817 0.933727
vt 0.075985 0.906822
vt 0.146181 0.916677
vt 0.117235 0.937252
vt 0.143479 0.915257
vt 0.146837 0.884095
vt 0.142595 0.884760
vt 0.071509 0.904187
vt 0.234807 0.918761
vt 0.238079 0.950324
vt 0.898718 0.521261
vt 0.898669 0.532970
vt 0.898408 0.950775
vt 0.889791 0.950734
vt 0.891392 0.047566
vt 0.899396 0.047376
vt 0.923401 0.535500
vt 0.923737 0.950765
vt 0.915356 0.950762
vt 0.915144 0.047124
vt 0.923060 0.047029
vt 0.923427 0.523772
vt 0.876408 0.950973
vt 0.878702 0.047831
vt 0.907117 0.533682
vt 0.906918 0.950774
vt 0.931863 0.536200
vt 0.932161 0.950795
vt 0.862257 0.952623
vt 0.864843 0.046096
vt 0.915772 0.980829
vt 0.908271 0.981353
vt 0.953809 0.950891
vt 0.967821 0.952434
vt 0.954688 0.986448
vt 0.946297 0.983661
vt 0.940681 0.950831
vt 0.938214 0.981910
vt 0.930678 0.981098
vt 0.884024 0.985788
vt 0.875386 0.988659
vt 0.900552 0.982335
vt 0.923221 0.980743
vt 0.847367 0.955885
vt 0.866812 0.992553
vt 0.892519 0.983799
vt 0.982641 0.955842
vt 0.962943 0.990405
vt 0.805412 0.477893
vt 0.805412 0.503398
vt 0.792659 0.525487
vt 0.770570 0.538240
vt 0.745065 0.538240
vt 0.722976 0.525487
vt 0.710223 0.503399
vt 0.710223 0.477893
vt 0.722976 0.455804
vt 0.745065 0.443051
vt 0.770570 0.443051
vt 0.792659 0.455804
vt 0.907288 0.047237
vt 0.899886 0.028476
vt 0.907294 0.028697
vt 0.952554 0.047263
vt 0.939244 0.047213
vt 0.938388 0.025109
vt 0.947991 0.022965
vt 0.931084 0.047019
vt 0.922125 0.027838
vt 0.929934 0.026723
vt 0.849436 0.041919
vt 0.865131 0.018230
vt 0.874223 0.022949
vt 0.892246 0.027823
vt 0.914650 0.028488
vt 0.982641 0.041799
vt 0.966904 0.045542
vt 0.957887 0.019798
vt 0.967720 0.015259
vt 0.883543 0.026022
vt 0.713705 0.613559
vt 0.713705 0.588771
vt 0.726099 0.567303
vt 0.747566 0.554909
vt 0.772354 0.554909
vt 0.793821 0.567303
vt 0.806216 0.588771
vt 0.806216 0.613558
vt 0.793821 0.635026
vt 0.772354 0.647420
vt 0.747566 0.647420
vt 0.726099 0.635026
vt 0.931813 0.524473
vt 0.907086 0.521976
vt 0.898840 0.532798
vt 0.906876 0.533524
vt 0.906917 0.522146
vt 0.730759 0.833662
vt 0.740361 0.825612
vt 0.744202 0.933942
vt 0.729166 0.939666
vt 0.742549 0.785564
vt 0.733052 0.777602
vt 0.731477 0.672760
vt 0.746348 0.678422
vt 0.923572 0.535328
vt 0.931621 0.536042
vt 0.898957 0.521418
vt 0.931644 0.524645
vt 0.923668 0.523929
vt 0.697863 0.306256
vt 0.697863 0.221435
vt 0.790280 0.221435
vt 0.790280 0.306256
vt 0.782684 0.219939
vt 0.697863 0.219939
vt 0.697863 0.127523
vt 0.782684 0.127523
vt 0.772318 0.833072
vt 0.794446 0.832591
vt 0.794446 0.938606
vt 0.776921 0.938987
vt 0.796041 0.778661
vt 0.774156 0.778185
vt 0.778709 0.673432
vt 0.796041 0.673808
vt 0.764437 0.785875
vt 0.763683 0.678668
vt 0.762492 0.825298
vt 0.761729 0.933693
vn 0.5000 0.0000 0.8660
vn 0.0000 0.0000 1.0000
vn 0.0000 1.0000 -0.0000
vn 0.0000 1.0000 -0.0001
vn 0.0000 -1.0000 0.0000
vn 0.0000 -1.0000 0.0001
vn 0.8591 0.0000 -0.5118
vn 1.0000 0.0000 -0.0000
vn -1.0000 0.0000 -0.0000
vn -0.8633 0.0025 -0.5047
vn -0.5000 0.0000 0.8660
vn 0.8660 0.0000 0.5000
vn -0.2209 -0.0716 -0.9727
vn -0.3843 0.0010 -0.9232
vn -0.8660 0.0000 0.5000
vn 0.2172 -0.0751 -0.9732
vn 0.3682 -0.0017 -0.9298
vn 0.0001 0.0234 0.9997
vn 0.0002 0.0427 0.9991
vn 0.0000 0.0000 -1.0000
vn -0.0043 0.0002 -1.0000
vn -0.0074 0.0003 -1.0000
vn 0.6610 -0.7503 0.0000
vn 0.2974 -0.9547 0.0000
vn 0.2986 -0.9544 0.0000
vn -0.1075 -0.9942 0.0000
vn 0.0595 -0.9982 0.0000
vn 0.1525 -0.9883 0.0000
vn -0.0982 0.9952 0.0000
vn -0.0357 0.9994 0.0000
vn -0.0699 -0.9976 0.0000
vn -0.0197 -0.9998 0.0000
vn -0.2187 0.9758 0.0000
vn -0.1478 0.9890 0.0000
vn 0.1827 -0.9832 0.0000
vn 0.2653 -0.9642 0.0000
vn 0.0295 0.9996 0.0000
vn 0.0433 0.9991 0.0000
vn -0.6198 0.7848 0.0000
vn -0.3983 0.9172 0.0000
vn 0.4077 -0.9131 0.0000
vn 0.4617 -0.8870 0.0000
vn -0.2328 0.9725 0.0000
vn -0.2338 0.9723 0.0000
vn -0.7072 0.7070 0.0000
vn -0.0007 -0.0359 -0.9994
vn 0.0099 -0.0650 -0.9978
vn 1.0000 0.0027 0.0000
vn 0.9492 -0.3146 -0.0013
vn 0.9560 -0.2933 -0.0012
vn -0.2418 0.9703 0.0000
vn 0.0122 0.0000 -0.9999
vn 0.0020 0.0002 -1.0000
vn 0.8116 -0.5842 -0.0023
vn 0.0006 0.1118 0.9937
vn -0.2553 0.0000 0.9669
vn -0.4954 -0.1354 0.8581
vn 0.0000 -0.1354 0.9908
vn 0.0000 0.2030 0.9792
vn -0.4896 0.2030 0.8480
vn -0.9071 0.0000 -0.4210
vn -0.8581 -0.1354 -0.4954
vn -0.9908 -0.1354 -0.0000
vn -0.9792 0.2030 -0.0000
vn -0.8480 0.2030 -0.4896
vn 0.4954 -0.1354 0.8581
vn 0.4896 0.2030 0.8480
vn -0.6333 0.0000 0.7739
vn -0.8581 -0.1354 0.4954
vn -0.4210 0.0000 -0.9071
vn -0.4954 -0.1354 -0.8581
vn 0.8581 -0.1354 0.4954
vn 0.8480 0.2030 0.4896
vn -0.9617 -0.2741 -0.0000
vn -0.8329 -0.2741 0.4808
vn 0.4954 -0.1354 -0.8581
vn 0.8581 -0.1354 -0.4954
vn 0.8329 -0.2741 -0.4808
vn 0.4808 -0.2741 -0.8329
vn -0.0000 -0.1354 -0.9908
vn -0.0000 -0.2741 -0.9617
vn -0.4808 -0.2741 -0.8329
vn 0.4808 -0.2741 0.8329
vn 0.8329 -0.2741 0.4809
vn -0.4808 -0.2741 0.8329
vn -0.8329 -0.2741 -0.4808
vn 0.9908 -0.1354 0.0000
vn 0.9617 -0.2741 0.0000
vn 0.0000 -0.2741 0.9617
vn -0.8480 0.2030 0.4896
vn -0.3004 0.7995 0.5202
vn -0.5202 0.7995 0.3004
vn 0.4896 0.2030 -0.8480
vn -0.0000 0.2030 -0.9792
vn -0.0000 0.7995 -0.6007
vn 0.3004 0.7995 -0.5202
vn -0.4896 0.2030 -0.8480
vn -0.5202 0.7995 -0.3004
vn -0.3004 0.7995 -0.5202
vn 0.9792 0.2030 0.0000
vn 0.6007 0.7995 0.0000
vn 0.5202 0.7995 0.3004
vn 0.0000 0.7995 0.6007
vn -0.6007 0.7995 -0.0000
vn 0.8480 0.2030 -0.4896
vn 0.5202 0.7995 -0.3004
vn 0.3004 0.7995 0.5202
vn 0.0406 0.0000 0.9992
vn -0.0202 0.9997 -0.0138
vn -0.0202 0.9997 0.0138
vn -0.0239 0.0000 0.9997
vn -0.8999 0.0000 -0.4362
vn -0.8999 0.0000 0.4362
vn -0.0724 0.0000 0.9974
vn -0.0724 0.0000 -0.9974
vn -0.0202 -0.9997 0.0138
vn -0.0202 -0.9997 -0.0138
vn 0.1226 0.0000 0.9925
vn 0.1226 0.0000 -0.9925
vn -0.8656 -0.4996 0.0322
vn 0.0106 0.9999 0.0000
usemtl None
s 1
f 34/1/1 43/2/2 44/3/2 33/4/1
f 22/5/3 31/6/4 43/7/4 34/8/3
f 18/9/5 20/10/5 1/11/5 3/12/5
f 29/13/3 23/14/3 35/15/3 41/16/3
f 30/17/5 15/18/5 6/19/5 42/20/5
f 21/21/5 24/22/5 36/23/5 33/4/5
f 26/24/5 32/25/6 44/3/6 38/26/5
f 23/14/3 22/5/3 34/8/3 35/15/3
f 11/27/5 14/28/5 7/29/5 10/30/5
f 20/10/5 28/31/5 40/32/5 1/11/5
f 16/33/3 29/13/3 41/16/3 5/34/3
f 14/28/5 26/24/5 38/26/5 7/29/5
f 5/35/7 41/36/8 42/20/8 6/19/7
f 9/37/9 39/38/10 40/32/10 10/30/9
f 43/2/2 37/39/11 38/26/11 44/3/2
f 41/36/8 35/40/12 36/23/12 42/20/8
f 40/32/10 39/38/10 2/41/13 1/11/14
f 37/39/11 8/42/15 7/29/15 38/26/11
f 35/40/12 34/1/1 33/4/1 36/23/12
f 4/43/16 5/35/7 6/19/7 3/12/17
f 8/42/15 9/37/9 10/30/9 7/29/15
f 12/44/3 27/45/3 39/46/3 9/47/3
f 24/22/5 30/17/5 42/20/5 36/23/5
f 17/48/3 16/33/3 5/34/3 4/49/3
f 25/50/3 13/51/3 8/52/3 37/53/3
f 32/25/6 21/21/5 33/4/5 44/3/6
f 15/18/5 18/9/5 3/12/5 6/19/5
f 28/31/5 11/27/5 10/30/5 40/32/5
f 13/51/3 12/44/3 9/47/3 8/52/3
f 31/6/4 25/50/3 37/53/3 43/7/4
f 54/54/2 61/55/2 53/56/2 50/57/2
f 50/57/2 53/56/2 57/58/2 58/59/2
f 52/60/2 51/61/2 62/62/2 55/63/2 60/64/2 63/65/2
f 56/66/2 59/67/2 51/61/2 52/60/2
f 60/64/2 55/63/2 45/68/2
f 58/59/2 57/58/2 49/69/2 48/70/2
f 48/70/2 49/69/2 59/67/2 56/66/2
f 46/71/2 47/72/2 61/55/2 54/54/2
f 47/72/2 46/71/2 64/73/18 65/74/2
f 65/74/2 64/73/18 66/75/19 67/76/2
f 77/77/20 73/78/20 76/79/20 84/80/20
f 73/78/20 81/81/20 80/82/20 76/79/20
f 75/83/20 86/84/20 83/85/20 78/86/20 85/87/20 74/88/20
f 79/89/20 75/83/20 74/88/20 82/90/20
f 83/85/20 68/91/20 78/86/20
f 81/81/20 71/92/20 72/93/20 80/82/20
f 71/92/20 79/89/20 82/90/20 72/93/20
f 69/94/21 77/77/20 84/80/20 70/95/22
f 64/96/23 46/97/24 69/94/25 88/98/23
f 46/97/24 54/99/26 77/77/26 69/94/25
f 48/100/27 56/101/28 79/89/28 71/92/27
f 49/102/29 57/103/30 80/82/30 72/93/29
f 50/104/31 58/105/32 81/81/32 73/78/31
f 51/106/33 59/107/34 82/90/34 74/88/33
f 52/108/35 63/109/36 86/84/36 75/83/35
f 53/110/37 61/111/38 84/80/38 76/79/37
f 54/99/26 50/104/31 73/78/31 77/77/26
f 55/112/39 62/113/40 85/87/40 78/86/39
f 56/101/28 52/108/35 75/83/35 79/89/28
f 57/103/30 53/110/37 76/79/37 80/82/30
f 58/105/32 48/100/27 71/92/27 81/81/32
f 59/107/34 49/102/29 72/93/29 82/90/34
f 60/114/41 45/115/42 68/91/42 83/85/41
f 61/111/38 47/116/43 70/95/44 84/80/38
f 45/115/45 55/112/39 78/86/39 68/91/45
f 62/113/40 51/106/33 74/88/33 85/87/40
f 63/109/36 60/114/41 83/85/41 86/84/36
f 88/98/46 89/117/47 4/49/16 2/118/13
f 67/119/48 66/120/49 89/117/50 90/121/48
f 65/122/51 87/123/51 70/95/44 47/116/43
f 39/46/3 27/45/3 19/124/3 2/118/3
f 90/121/52 89/117/47 88/98/46 87/123/53
f 66/120/49 17/48/54 4/49/54 89/117/50
f 88/98/46 69/94/21 70/95/22 87/123/53
f 64/73/18 19/125/55 17/126/55 66/75/19
f 139/127/56 140/128/56 96/129/57 97/130/58 109/131/59 108/132/60
f 144/133/61 93/134/62 94/135/63 106/136/64 105/137/65 143/138/61
f 109/131/59 97/130/58 98/139/66 110/140/67
f 96/129/57 140/128/56 141/141/68 95/142/69
f 93/134/62 144/133/61 145/143/70 92/144/71
f 99/145/72 111/146/73 110/140/67 98/139/66
f 95/142/69 94/135/63 118/147/74 119/148/75
f 102/149/76 101/150/77 125/151/78 126/152/79
f 92/144/71 91/153/80 115/154/81 116/155/82
f 99/145/72 98/139/66 122/156/83 123/157/84
f 96/129/57 95/142/69 119/148/75 120/158/85
f 91/153/80 102/149/76 126/152/79 115/154/81
f 93/134/62 92/144/71 116/155/82 117/159/86
f 100/160/87 99/145/72 123/157/84 124/161/88
f 97/130/58 96/129/57 120/158/85 121/162/89
f 94/135/63 93/134/62 117/159/86 118/147/74
f 101/150/77 100/163/87 124/164/88 125/151/78
f 98/139/66 97/130/58 121/162/89 122/156/83
f 116/165/5 115/166/5 126/167/5 125/168/5 124/169/5 123/170/5 122/171/5 121/172/5 120/173/5 119/174/5 118/175/5 117/176/5
f 107/177/90 108/132/60 132/178/91 131/179/92
f 114/180/93 103/181/94 127/182/95 138/183/96
f 104/184/97 105/137/65 129/185/98 128/186/99
f 111/146/73 112/187/100 136/188/101 135/189/102
f 108/132/60 109/131/59 133/190/103 132/178/91
f 105/137/65 106/136/64 130/191/104 129/185/98
f 112/192/100 113/193/105 137/194/106 136/195/101
f 109/131/59 110/140/67 134/196/107 133/190/103
f 106/136/64 107/177/90 131/179/92 130/191/104
f 113/193/105 114/180/93 138/183/96 137/194/106
f 103/181/94 104/184/97 128/186/99 127/182/95
f 110/140/67 111/146/73 135/189/102 134/196/107
f 128/197/99 129/198/98 130/199/104 131/200/92 132/201/91 133/202/103 134/203/107 135/204/102 136/205/101 137/206/106 138/207/96 127/208/95
f 100/160/87 112/187/100 111/146/73 99/145/72
f 92/144/71 145/143/70 146/209/70 104/184/97 103/181/94 91/153/80
f 141/141/68 142/210/68 107/177/90 106/136/64 94/135/63 95/142/69
f 100/163/87 101/150/77 113/193/105 112/192/100
f 102/149/76 91/153/80 103/181/94 114/180/93
f 143/138/61 105/137/65 104/184/97 146/209/70
f 139/127/56 108/132/60 107/177/90 142/210/68
f 141/141/68 140/128/56 154/211/108 147/212/2
f 142/210/68 141/141/68 147/212/2 148/213/2
f 151/214/109 150/215/109 158/216/109 159/217/109
f 153/218/110 148/219/110 156/220/110 161/221/110
f 145/143/2 144/133/2 152/222/111 149/223/2
f 140/128/56 139/127/56 153/224/108 154/211/108
f 139/127/56 142/210/68 148/213/2 153/224/108
f 146/209/2 145/143/2 149/223/2 150/225/2
f 144/133/2 143/138/2 151/226/111 152/222/111
f 143/138/2 146/209/2 150/225/2 151/226/111
f 159/227/112 158/228/112 157/229/112 160/230/112
f 161/231/113 156/232/113 155/233/113 162/234/113
f 152/235/111 151/236/111 159/237/114 160/238/114
f 148/239/115 147/240/115 155/241/115 156/242/115
f 147/240/116 154/243/116 162/244/116 155/241/116
f 149/245/117 152/235/117 160/238/117 157/246/117
f 154/243/108 153/218/108 161/221/118 162/244/118
f 150/215/119 149/245/119 157/246/119 158/216/119
f 102/149/76 114/180/93 113/193/105 101/150/77
f 88/98/120 2/118/120 19/124/120 64/96/120
f 67/119/121 90/121/121 87/123/51 65/122/51
f 4/43/16 3/12/17 1/11/14 2/41/13
